<?xml version="1.0" standalone="no"?>
<!DOCTYPE svg PUBLIC "-//W3C//DTD SVG 1.1//EN" "http://www.w3.org/Graphics/SVG/1.1/DTD/svg11.dtd" >
<svg>
<metadata>
Created by FontForge 20090622 at Tue May 14 17:03:51 2019
 By deploy user
(c) Copyright 2005 by Tong Duc Thinh. All Rights Reserved
</metadata>
<defs>
<font id="SFUHelveticaCondensedBlack" horiz-adv-x="500" >
  <font-face 
    font-family="SFU Helvetica"
    font-weight="400"
    font-stretch="normal"
    units-per-em="1000"
    panose-1="0 0 4 0 0 0 0 0 0 0"
    ascent="800"
    descent="-200"
    x-height="560"
    cap-height="750"
    bbox="-168 -232 1113 1203"
    underline-thickness="58"
    underline-position="-61"
    unicode-range="U+0020-U+F002"
  />
<missing-glyph 
d="M63 0v806h375v-806h-375zM125 63h250v681h-250v-681z" />
    <glyph glyph-name=".notdef" 
d="M63 0v806h375v-806h-375zM125 63h250v681h-250v-681z" />
    <glyph glyph-name=".null" horiz-adv-x="0" 
 />
    <glyph glyph-name="nonmarkingreturn" horiz-adv-x="250" 
 />
    <glyph glyph-name="space" unicode=" " horiz-adv-x="250" 
 />
    <glyph glyph-name="exclam" unicode="!" horiz-adv-x="333" 
d="M122 241l-43 320v189h176v-189l-43 -320h-90zM252 0h-169v171h169v-171z" />
    <glyph glyph-name="quotedbl" unicode="&#x22;" horiz-adv-x="333" 
d="M318 468h-119v271h119v-271zM135 468h-119v271h119v-271z" />
    <glyph glyph-name="numbersign" unicode="#" 
d="M465 336v-114h-101l-30 -222h-87l29 222h-85l-30 -222h-90l30 222h-92v114h108l14 94h-94v115h108l28 205h87l-27 -205h86l27 205h90l-28 -205h83v-115h-99l-12 -94h85zM304 430h-86l-12 -94h86z" />
    <glyph glyph-name="dollar" unicode="$" 
d="M271 267v-167q34 6 55.5 30t16.5 58q-5 17 -9 33q-11 20 -63 46zM14 215h139q3 -28 5 -57q9 -45 62 -60v187q-103 49 -143 91q-56 58 -56 154q0 79 55 132t133 58v66h88v-66q87 -8 136.5 -65.5t47.5 -145.5h-140q0 89 -63 97v-175q106 -45 147 -84q59 -57 59 -154
q0 -93 -50.5 -147.5t-144.5 -61.5v-110h-88v111q-102 17 -144.5 70.5t-42.5 159.5zM227 456v152q-33 -10 -46 -22q-19 -16 -19 -48q0 -63 65 -82z" />
    <glyph glyph-name="percent" unicode="%" horiz-adv-x="833" 
d="M184 363q-90 0 -128 50q-32 43 -32 137q0 186 160 186q87 0 125 -46q35 -43 35 -140q0 -91 -28 -133q-36 -54 -132 -54zM184 454q29 0 36 37q3 13 3 60q0 52 -1 58q-7 35 -38 36q-30 1 -37 -35q-2 -9 -2 -59q0 -58 2 -65q6 -32 37 -32zM628 750l-336 -768h-84l338 768h82
zM650 369q89 0 127 -49q33 -43 33 -137q0 -91 -28 -133q-36 -54 -132 -54q-90 0 -128 50q-32 43 -32 137q0 186 160 186zM650 278q-30 1 -37 -34q-2 -9 -2 -59q0 -58 2 -66q6 -32 37 -32q29 0 36 37q3 14 3 61q0 51 -1 57q-7 35 -38 36z" />
    <glyph glyph-name="ampersand" unicode="&#x26;" horiz-adv-x="667" 
d="M371 150l-117 181q-28 -31 -39 -53q-12 -26 -12 -64q0 -40 27 -68.5t66 -28.5q30 0 75 33zM308 658q-19 0 -31.5 -13.5t-12.5 -32.5q0 -52 42 -90q20 10 36.5 36t16.5 48q0 52 -51 52zM466 0l-27 43q-71 -61 -167 -61q-101 0 -163 60.5t-62 162.5q0 154 139 239
q-61 75 -61 167q0 74 63 118q56 39 132 39q79 0 129 -41q55 -44 55 -122q0 -119 -127 -185l81 -127h2q7 33 20 106h129q-3 -110 -67 -237l103 -162h-179z" />
    <glyph glyph-name="quotesingle" unicode="'" horiz-adv-x="250" 
d="M185 468h-119v271h119v-271z" />
    <glyph glyph-name="parenleft" unicode="(" horiz-adv-x="278" 
d="M137 750h121q-82 -208 -82 -475q0 -254 86 -462h-125q-66 157 -85 233q-28 107 -28 252q0 215 113 452z" />
    <glyph glyph-name="parenright" unicode=")" horiz-adv-x="278" 
d="M141 -187h-121q82 208 82 475q0 254 -86 462h125q66 -157 85 -233q28 -107 28 -252q0 -215 -113 -452z" />
    <glyph glyph-name="asterisk" unicode="*" 
d="M205 634v116h93v-113l109 42l30 -92l-114 -35l78 -101l-74 -58l-77 103l-71 -100l-78 54l77 99l-114 33l30 90z" />
    <glyph glyph-name="plus" unicode="+" 
d="M193 307v185h115v-185h167v-115h-167v-192h-115v192h-167v115h167z" />
    <glyph glyph-name="comma" unicode="," horiz-adv-x="333" 
d="M82 -156v57q84 3 91 99h-91v171h169v-172q0 -143 -169 -155z" />
    <glyph glyph-name="hyphen" unicode="-" horiz-adv-x="333" 
d="M291 237h-248v150h248v-150z" />
    <glyph glyph-name="hyphen" unicode="&#x2010;" horiz-adv-x="333" 
d="M291 237h-248v150h248v-150z" />
    <glyph glyph-name="period" unicode="." horiz-adv-x="333" 
d="M251 0h-169v171h169v-171z" />
    <glyph glyph-name="slash" unicode="/" horiz-adv-x="278" 
d="M79 -94h-107l225 844h110z" />
    <glyph glyph-name="zero" unicode="0" 
d="M305 201v337q0 87 -54 87q-36 0 -48 -28q-8 -17 -8 -59v-337q0 -46 7 -64q12 -31 49 -30q54 1 54 94zM28 189v349q0 212 223 212q129 0 178 -64q43 -57 43 -191v-270q0 -128 -47 -183q-52 -60 -176 -60q-221 0 -221 207z" />
    <glyph glyph-name="one" unicode="1" 
d="M190 0v506h-153v115q72 -1 123 23q64 29 76 90h113v-734h-159z" />
    <glyph glyph-name="two" unicode="2" 
d="M183 479h-159v39q0 112 59 172t171 60q103 0 160 -52t57 -154q0 -69 -21.5 -117.5t-72.5 -97.5l-65 -63q-90 -87 -99 -131h259v-135h-449v25q0 154 157 319l76 80q48 51 48 127q0 32 -14 52q-17 24 -49 22q-58 -4 -58 -110v-36z" />
    <glyph glyph-name="three" unicode="3" 
d="M157 322v120q27 1 53 3q31 4 50 17q32 23 32 84q0 77 -59 77q-37 0 -48 -39q-3 -12 -6 -70h-160l1 55q1 80 70 133q64 48 147 48q214 0 214 -193q0 -119 -101 -167v-2q119 -30 119 -185q0 -221 -232 -221q-103 0 -159 54t-58 154l-1 51h158q5 -79 7 -86q11 -48 57 -48
q61 0 61 96q0 82 -38 105q-19 11 -52 13q-28 0 -55 1z" />
    <glyph glyph-name="four" unicode="4" 
d="M135 268h124v243h-2zM9 143v140l234 451h175v-466h66v-125h-66v-143h-159v143h-250z" />
    <glyph glyph-name="five" unicode="5" 
d="M182 325h-147l19 409h388v-135h-261l-7 -140q52 46 117 46q106 0 150 -82q32 -61 32 -177q0 -130 -49 -193q-55 -71 -181 -71q-95 0 -145 44.5t-68 137.5v57h158l6 -68q10 -42 46 -46q66 -7 66 124q0 68 -5 92q-14 57 -60 57q-54 0 -59 -55z" />
    <glyph glyph-name="six" unicode="6" 
d="M250 107q57 0 57 98v75q0 78 -59 78q-54 0 -54 -76v-110q0 -65 56 -65zM463 556h-159q-2 69 -55 69q-41 0 -51 -48q-4 -17 -4 -81v-50q49 37 114 37q166 0 166 -225q0 -138 -46 -201q-53 -75 -184 -75q-217 0 -217 264v198q0 145 34 212q47 94 174 94q113 0 165 -40
q59 -46 63 -154z" />
    <glyph glyph-name="seven" unicode="7" 
d="M24 599v135h432v-125q-78 -137 -135 -356q-28 -105 -44 -253h-173q0 70 42 215q37 126 74 210l78 174h-274z" />
    <glyph glyph-name="eight" unicode="8" 
d="M249 104q42 0 56 40q7 23 7 76q0 50 -9 73q-14 38 -56 38t-54 -39q-5 -18 -5 -75q0 -113 61 -113zM192 537q0 -86 56 -86q62 0 62 90q0 88 -58 88q-60 0 -60 -92zM121 394v2q-88 47 -88 157q0 97 60 148q56 49 156 49q102 0 159 -48q59 -51 59 -149q0 -111 -91 -157v-2
q56 -33 75.5 -72.5t19.5 -108.5q0 -121 -58 -176t-178 -55q-97 0 -151.5 61t-54.5 170q0 68 17 103q19 40 75 78z" />
    <glyph glyph-name="nine" unicode="9" 
d="M251 625q-40 0 -52 -51q-5 -23 -5 -82q0 -57 6 -76q11 -42 53 -42q40 0 50 41q5 17 5 72q0 73 -3 87q-10 51 -54 51zM38 176h159q2 -69 55 -69q41 0 52 48q3 17 3 81v50q-49 -37 -114 -37q-166 0 -166 225q0 138 46 201q53 75 184 75q217 0 217 -264v-198
q0 -144 -33 -211q-48 -95 -175 -95q-113 0 -165 40q-59 46 -63 154z" />
    <glyph glyph-name="colon" unicode=":" horiz-adv-x="278" 
d="M224 384h-169v171h169v-171zM224 0h-169v171h169v-171z" />
    <glyph glyph-name="semicolon" unicode=";" horiz-adv-x="278" 
d="M55 -156v57q84 3 91 99h-91v171h169v-172q0 -143 -169 -155zM224 384h-169v171h169v-171z" />
    <glyph glyph-name="less" unicode="&#x3c;" 
d="M162 250l297 -162v-111l-417 225v99l417 227v-111z" />
    <glyph glyph-name="equal" unicode="=" 
d="M475 405v-115h-449v115h449zM475 210v-115h-449v115h449z" />
    <glyph glyph-name="greater" unicode="&#x3e;" 
d="M42 88l297 162l-297 167v111l417 -227v-99l-417 -225v111z" />
    <glyph glyph-name="question" unicode="?" 
d="M179 531h-159q-5 105 56.5 171t165.5 66q100 0 161 -44q68 -50 68 -146q0 -75 -66 -156q-23 -26 -65 -81q-18 -25 -23 -48q-3 -12 -7 -53h-151q-2 97 25 141q65 81 68 85q43 61 43 101q0 66 -56 66q-39 0 -52 -33q-8 -21 -8 -69zM318 0h-170v171h169z" />
    <glyph glyph-name="at" unicode="@" horiz-adv-x="830" 
d="M503 370q4 49 -15 81q-23 37 -67 33q-46 -4 -78 -41t-35 -86q-3 -46 18 -76q23 -34 67 -34q46 0 78 42q28 36 32 81zM537 516l11 53h98l-53 -308q-2 -13 4 -18.5t16 -2.5q30 9 68 64q33 47 35 119q3 125 -76.5 198.5t-208.5 73.5q-138 0 -227.5 -89.5t-89.5 -227.5
q0 -143 97 -233q94 -88 237 -88q105 0 205 91h96q-120 -166 -309 -166q-169 0 -286 113.5t-117 282.5q0 166 115 278t282 112q145 0 244 -84q116 -98 116 -232q0 -131 -80 -213q-32 -33 -83 -59q-55 -29 -97 -29q-17 0 -30.5 13.5t-13.5 36.5q0 7 2 15q-67 -61 -125 -61
q-77 0 -124 54q-45 51 -45 130q0 96 58 165q61 73 154 73q84 0 127 -61z" />
    <glyph glyph-name="A" unicode="A" horiz-adv-x="556" 
d="M186 0h-177l164 750h212l163 -750h-178l-25 146h-138zM328 278l-49 336h-2l-51 -336h102z" />
    <glyph glyph-name="B" unicode="B" horiz-adv-x="556" 
d="M220 320v-185q78 2 96 11q29 17 29 86q0 59 -34 76q-20 9 -91 12zM220 615v-160q70 5 85 13q28 16 28 76q0 49 -33 63q-19 8 -80 8zM292 0h-248v750h228q237 0 237 -194q0 -112 -85 -158v-2q59 -34 78 -70.5t19 -108.5q0 -217 -229 -217z" />
    <glyph glyph-name="C" unicode="C" horiz-adv-x="556" 
d="M515 488h-176v48q0 96 -56 97q-39 0 -53.5 -19t-14.5 -59l-1 -371q0 -67 63 -67q65 0 65 108v68h176v-92q0 -102 -59 -158q-65 -61 -195 -61q-225 0 -225 239v308q0 239 236 239q240 0 240 -217v-63z" />
    <glyph glyph-name="D" unicode="D" horiz-adv-x="556" 
d="M283 0h-237v750h191q138 0 198 -35q79 -46 79 -185v-333q0 -114 -75 -162q-55 -35 -156 -35zM222 615v-480q81 -5 102 29q14 23 14 111v245q0 62 -26 80q-20 13 -90 15z" />
    <glyph glyph-name="E" unicode="E" 
d="M461 0h-415v750h403v-150h-227v-138h220v-150h-220v-162h239v-150z" />
    <glyph glyph-name="F" unicode="F" 
d="M225 0h-176v750h414v-150h-238v-133h219v-150h-219v-317z" />
    <glyph glyph-name="G" unicode="G" horiz-adv-x="556" 
d="M512 -1h-120l-8 67h-2q-27 -47 -60.5 -65.5t-91.5 -18.5q-197 0 -197 239v308q0 239 236 239q239 0 239 -217v-56h-176v41q0 46 -6 64q-12 32 -49 33q-68 1 -68 -78v-371q0 -67 65 -67q40 0 54 30q8 19 8 66v59h-63v135h239v-408z" />
    <glyph glyph-name="H" unicode="H" horiz-adv-x="556" 
d="M217 0h-176v750h176v-288h122v288h176v-750h-176v312h-122v-312z" />
    <glyph glyph-name="I" unicode="I" horiz-adv-x="278" 
d="M227 0h-176v750h176v-750z" />
    <glyph glyph-name="J" unicode="J" horiz-adv-x="444" 
d="M7 250h141v-95q0 -39 36 -38q34 1 34 27l1 606h176v-522q0 -64 -2 -82q-4 -47 -21 -79q-45 -85 -179 -85q-66 0 -112 31q-51 32 -66 93q-8 31 -8 101v43z" />
    <glyph glyph-name="K" unicode="K" horiz-adv-x="556" 
d="M220 0h-176v750h176v-300h2l130 300h180l-160 -331l170 -419h-186l-97 261l-39 -76v-185z" />
    <glyph glyph-name="L" unicode="L" horiz-adv-x="444" 
d="M428 0h-391v750h176v-600h215v-150z" />
    <glyph glyph-name="M" unicode="M" horiz-adv-x="778" 
d="M216 0h-167v750h248l91 -443h2l94 443h246v-750h-168l18 588h-2l-124 -588h-131l-121 588h-2z" />
    <glyph glyph-name="N" unicode="N" horiz-adv-x="556" 
d="M333 0l-137 420l-2 -2l16 -418h-167v750h181l136 -419h3l-17 419h167v-750h-180z" />
    <glyph glyph-name="O" unicode="O" horiz-adv-x="556" 
d="M341 224v308q0 101 -62 101q-63 0 -63 -101v-308q0 -107 64 -107q61 0 61 107zM517 544v-305q0 -132 -52 -192q-56 -65 -185 -65q-130 0 -187 65q-53 61 -53 192v305q0 108 62 166t178 58q115 0 176 -58t61 -166z" />
    <glyph glyph-name="P" unicode="P" horiz-adv-x="556" 
d="M229 615v-188l51 2q30 3 48 17q22 24 22 76q0 72 -33 87q-17 6 -69 6h-19zM229 0h-176v750h209q160 0 215 -62q49 -56 49 -163q0 -162 -99 -209q-39 -18 -97 -22l-101 -2v-292z" />
    <glyph glyph-name="Q" unicode="Q" horiz-adv-x="556" 
d="M517 544v-305q0 -126 -49 -186l82 -88l-103 -88l-99 111q-30 -6 -68 -6q-130 0 -187 65q-53 61 -53 192v305q0 108 62 166t178 58q115 0 176 -58t61 -166zM216 532v-308q0 -107 64 -107q61 0 61 107v308q0 101 -62 101q-63 0 -63 -101z" />
    <glyph glyph-name="R" unicode="R" horiz-adv-x="556" 
d="M218 615v-184h60q63 0 63 93q0 62 -29 80q-22 13 -94 11zM218 296v-296h-176v750h257q110 0 163 -48.5t53 -158.5q0 -65 -19 -103q-21 -44 -74 -68v-2q81 -18 87 -97q3 -94 16 -237q7 -17 17 -26v-10h-192q-11 31 -11 97v61q-1 61 -7 87q-14 51 -56 51h-58z" />
    <glyph glyph-name="S" unicode="S" 
d="M16 251h163v-53q0 -81 70 -81q29 0 44 22t15 53q0 41 -32 71q-14 13 -66 44q-97 57 -132 96q-52 60 -52 152q0 104 60 159q57 54 161 54q112 0 172 -69q57 -65 51 -174h-162q-2 52 -8 69q-12 36 -50 39q-55 4 -61 -50q-6 -53 53 -92l116.5 -71.5t82.5 -76.5
q30 -52 30 -137q0 -108 -58.5 -166t-167.5 -58q-114 0 -175 57q-54 51 -54 132v80z" />
    <glyph glyph-name="T" unicode="T" 
d="M22 600v150h456v-150h-142v-600h-176v600h-138z" />
    <glyph glyph-name="U" unicode="U" horiz-adv-x="556" 
d="M42 207v543h176v-566q0 -67 61 -67q60 0 60 72v561h176v-543q0 -225 -237 -225q-236 0 -236 225z" />
    <glyph glyph-name="V" unicode="V" horiz-adv-x="556" 
d="M381 0h-207l-163 750h176l90 -526h2l90 526h176z" />
    <glyph glyph-name="W" unicode="W" horiz-adv-x="778" 
d="M476 750l68 -526h2l55 526h167l-125 -750h-198l-54 528h-2l-58 -528h-195l-126 750h170l53 -527l2 2l71 525h170z" />
    <glyph glyph-name="X" unicode="X" horiz-adv-x="556" 
d="M197 750l82 -228h2l80 228h176l-156 -376l163 -374h-176l-85 224h-2l-100 -224h-168l167 374l-158 376h175z" />
    <glyph glyph-name="Y" unicode="Y" horiz-adv-x="556" 
d="M189 750l88 -245h2l90 245h176l-181 -435v-315h-176v315l-177 435h178z" />
    <glyph glyph-name="Z" unicode="Z" horiz-adv-x="444" 
d="M26 600v150h398v-140l-218 -460h228v-150h-424v134l222 466h-206z" />
    <glyph glyph-name="bracketleft" unicode="[" horiz-adv-x="278" 
d="M42 -187v937h220v-95h-81v-747h81v-95h-220z" />
    <glyph glyph-name="backslash" unicode="\" horiz-adv-x="250" 
d="M-99 750h126l323 -750h-126z" />
    <glyph glyph-name="bracketright" unicode="]" horiz-adv-x="278" 
d="M236 750v-937h-220v95h81v747h-81v95h220z" />
    <glyph glyph-name="asciicircum" unicode="^" 
d="M117 326l-102 47l176 377h118l176 -377l-102 -47l-134 279z" />
    <glyph glyph-name="underscore" unicode="_" 
d="M500 -119h-500v58h500v-58z" />
    <glyph glyph-name="grave" unicode="`" horiz-adv-x="333" 
d="M-38 782h208l100 -148h-137z" />
    <glyph glyph-name="a" unicode="a" 
d="M301 184v88q-30 -13 -80 -41q-37 -27 -37 -72q0 -60 59 -60q58 0 58 85zM318 0l-11 50q-62 -68 -137 -68q-67 0 -106.5 41.5t-39.5 108.5q0 109 72 159q23 15 133 51q72 23 72 70q0 24 -13.5 41t-36.5 17q-39 0 -51 -26q-7 -14 -10 -61h-159q-10 193 215 193
q117 0 165.5 -39t48.5 -132v-343q0 -25 13 -62h-155z" />
    <glyph glyph-name="b" unicode="b" 
d="M305 209v145q0 91 -46 91q-52 0 -52 -98v-132q0 -104 49 -103q33 0 44 35q5 18 5 62zM207 750v-236h2q32 62 119 62q72 0 107 -63q29 -51 29 -129v-194q0 -206 -139 -208q-85 -1 -127 82h-2v-64h-148v750h159z" />
    <glyph glyph-name="c" unicode="c" 
d="M456 352h-150l-1 10q-1 22 -6 64q-11 35 -43 35q-48 0 -48 -68v-231q0 -65 51 -65q38 0 47 49q2 14 2 81h154q0 -90 -13 -133q-29 -98 -150 -109q-32 -3 -53 -3q-197 0 -197 174v228q0 193 197 192q117 -1 167 -54.5t43 -169.5z" />
    <glyph glyph-name="d" unicode="d" 
d="M200 347v-145q0 -90 46 -90q49 0 49 97v132q0 106 -46 105q-33 0 -44 -36q-5 -19 -5 -63zM454 0h-148v65h-2q-46 -85 -124 -83q-139 3 -139 208v194q0 78 29 129q35 63 107 63q71 0 116 -67h2v241h159v-750z" />
    <glyph glyph-name="e" unicode="e" 
d="M197 359h110v55q0 20 -12 36q-15 21 -42 21q-56 0 -56 -75v-37zM466 254h-269v-98q0 -56 49 -59q38 -2 49 30q3 10 7 67h158q12 -209 -208 -212q-94 -1 -150 38q-64 46 -64 136v228q0 190 214 192q93 1 149 -35q65 -42 65 -127v-160z" />
    <glyph glyph-name="f" unicode="f" horiz-adv-x="333" 
d="M83 0v444h-64v115h63l1 49q2 78 41 111q36 31 116 31h70v-115h-34q-34 0 -34 -19v-57h68v-115h-68v-444h-159z" />
    <glyph glyph-name="g" unicode="g" 
d="M199 363v-159q0 -60 47 -60q48 0 48 73v155q0 74 -52 74q-43 0 -43 -83zM36 -31h159q0 -32 9 -42q10 -13 43 -11q26 2 37 11t11 35v113h-2q-53 -61 -113 -61q-70 0 -107 56q-33 48 -33 120v194q0 78 29 129q36 64 108 63q86 -1 126 -84h2v68h148v-571q0 -178 -213 -178
q-99 0 -145 31q-56 36 -59 127z" />
    <glyph glyph-name="h" unicode="h" 
d="M205 750v-234h2q47 60 121 60q57 0 92 -36t35 -91v-449h-159v398q0 48 -45 48q-46 0 -46 -59v-387h-159v750h159z" />
    <glyph glyph-name="i" unicode="i" horiz-adv-x="278" 
d="M219 0h-159v560h159v-560zM219 615h-159v135h159v-135z" />
    <glyph glyph-name="j" unicode="j" horiz-adv-x="278" 
d="M14 -189v115h20q30 0 30 51v583h159v-574q0 -86 -25 -126q-31 -49 -108 -49h-76zM223 615h-159v135h159v-135z" />
    <glyph glyph-name="k" unicode="k" 
d="M199 0h-159v750h159v-377h2l109 187h174l-158 -225l160 -335h-167l-93 216l-27 -36v-180z" />
    <glyph glyph-name="l" unicode="l" horiz-adv-x="278" 
d="M219 0h-159v750h159v-750z" />
    <glyph glyph-name="m" unicode="m" horiz-adv-x="722" 
d="M38 560h148v-65h2q39 76 119 81q38 2 71.5 -18.5t46.5 -55.5h2q43 74 116 74q59 0 100.5 -31t41.5 -86v-459h-159v400q0 48 -42 46q-43 -2 -43 -46v-400h-159v400q-10 46 -38 46q-47 0 -47 -46v-400h-159v560z" />
    <glyph glyph-name="n" unicode="n" 
d="M49 560h148v-70h2q12 34 43.5 60t67.5 26q59 0 100.5 -31t41.5 -86v-459h-159v400q0 48 -42 46q-43 -2 -43 -46v-400h-159v560z" />
    <glyph glyph-name="o" unicode="o" 
d="M42 156v228q0 192 208 192t208 -192v-228q0 -174 -208 -174q-93 0 -147 39q-61 45 -61 135zM201 396v-250q5 -49 49 -49t49 49v250q0 65 -49 65t-49 -65z" />
    <glyph glyph-name="p" unicode="p" 
d="M299 209v145q0 92 -46 92q-52 0 -52 -99v-132q0 -104 49 -103q33 0 44 35q5 18 5 62zM42 560h148v-68h2q46 83 130 84q72 1 107 -63q29 -50 29 -129v-194q0 -203 -139 -208q-67 -2 -116 71h-2v-242h-159v749z" />
    <glyph glyph-name="q" unicode="q" 
d="M292 209v132q0 106 -49 105q-33 0 -44 -36q-5 -19 -5 -63v-145q0 -90 46 -90q52 0 52 97zM451 560v-748h-159v241h-2q-49 -73 -116 -71q-139 5 -139 208v194q0 79 29 129q35 64 107 63q84 -1 130 -84h2v68h148z" />
    <glyph glyph-name="r" unicode="r" horiz-adv-x="333" 
d="M42 560h148v-85h2q30 101 123 101v-180q-21 4 -48 4q-35 0 -48 -9q-18 -12 -18 -46v-345h-159v560z" />
    <glyph glyph-name="s" unicode="s" horiz-adv-x="444" 
d="M423 394h-149q-5 43 -9 53q-11 24 -44 24q-53 0 -53 -47q0 -34 50 -57l100 -45q55 -28 80 -60q33 -41 33 -102q0 -89 -62 -136q-56 -42 -150 -42q-216 0 -208 189h152q-4 -84 57 -84q57 0 57 53q0 27 -21 43l-107 49q-65 31 -96 66q-40 46 -40 105q0 86 62 132
q55 41 145 41q92 0 147 -44q60 -49 56 -138z" />
    <glyph glyph-name="t" unicode="t" horiz-adv-x="333" 
d="M75 445h-63v115h63v160h159v-160h76v-115h-76v-295q0 -39 35 -39q12 2 41 2v-112q-61 -9 -102 -9q-133 0 -133 129v324z" />
    <glyph glyph-name="u" unicode="u" 
d="M449 0h-148v69h-2q-12 -34 -42 -60q-33 -27 -69 -27q-142 0 -142 118v460h159v-401q0 -49 39 -47q46 2 46 47v401h159v-560z" />
    <glyph glyph-name="v" unicode="v" horiz-adv-x="444" 
d="M169 560l53 -362h2l57 362h155l-123 -560h-182l-122 560h160z" />
    <glyph glyph-name="w" unicode="w" horiz-adv-x="667" 
d="M404 560l57 -362h2l44 362h152l-108 -560h-170l-45 291h-2l-48 -291h-170l-107 560h154l45 -362h2l58 362h136z" />
    <glyph glyph-name="x" unicode="x" horiz-adv-x="444" 
d="M272 560h159l-125 -280l129 -280h-159l-51 161h-2l-51 -161h-163l131 280l-125 280h158l47 -157h2z" />
    <glyph glyph-name="y" unicode="y" horiz-adv-x="444" 
d="M166 560l54 -362h2l55 362h156l-101 -479q-25 -119 -31 -138q-20 -66 -57 -96q-43 -36 -125 -36q-15 0 -35.5 2.5t-27.5 2.5v118q20 -2 31 -4q15 -3 31.5 5t16.5 23q0 13 -18 95l-111 507h160z" />
    <glyph glyph-name="z" unicode="z" horiz-adv-x="389" 
d="M25 435v125h350v-116l-182 -319h182v-125h-361v111l182 324h-171z" />
    <glyph glyph-name="braceleft" unicode="{" horiz-adv-x="274" 
d="M66 54v162q0 88 -75 107v2q75 10 75 109v184q0 80 39 107q28 19 68 23q18 2 110 2v-2q-75 -17 -75 -112v-184q0 -57 -15 -84q-19 -31 -67 -42v-2q82 -12 82 -135v-172q0 -90 75 -109v-2q-79 -2 -99 0q-62 6 -90 35t-28 113z" />
    <glyph glyph-name="bar" unicode="|" horiz-adv-x="250" 
d="M54 0v750h142v-750h-142z" />
    <glyph glyph-name="braceright" unicode="}" horiz-adv-x="274" 
d="M208 618v-183q0 -99 75 -109v-2q-46 -6 -63 -36q-12 -23 -12 -72v-162q0 -84 -28 -113t-90 -35q-22 -2 -99 0v2q75 17 75 110v171q0 57 13 84q18 36 69 51v2q-48 11 -66 43q-16 27 -16 83v185q0 96 -75 111v2q95 0 110 -1q41 -4 68 -23q39 -27 39 -108z" />
    <glyph glyph-name="asciitilde" unicode="~" 
d="M418 359v0l57 -73q-34 -60 -51 -79q-35 -38 -78 -38q-33 0 -103 33t-83 33q-26 0 -47 -28q-5 -7 -30 -54l-57 74q61 124 133 124q35 0 102 -33t85 -33q24 0 43 26z" />
    <glyph glyph-name="dagger" unicode="&#x2020;" 
d="M170 386h-141v135h141v229h159v-229h143v-135h-143v-559h-159v559z" />
    <glyph glyph-name="cent" unicode="&#xa2;" 
d="M199 386v-212q0 -57 9 -62l58 359q-1 1 -16 1q-51 0 -51 -86zM113 -147l28 147q-61 28 -81 88q-14 39 -14 121v131q0 87 13 126q21 60 85 90q43 20 116 20l26 109h86l-26 -123q120 -39 110 -210h-141q0 66 -11 96q-2 5 -5 7l-58 -366q8 -2 14 -2q32 0 45 14t15 47
q2 28 4 79h143q0 -123 -36 -178q-45 -67 -162 -67q-25 0 -38 2l-27 -131h-86z" />
    <glyph glyph-name="sterling" unicode="&#xa3;" 
d="M95 334h-90v62h64q-44 70 -46 175q-1 90 67 145q63 52 155 52q93 0 151 -46q63 -50 64 -138l1 -63h-153q0 56 -8 80q-15 42 -58 42q-60 0 -60 -89q0 -43 36 -158h143v-62h-126q0 -6 2.5 -22.5t2.5 -24.5q0 -97 -118 -187v-2q51 30 109 30q31 0 71 -10t51 -10q48 0 87 34
l33 -125q-75 -35 -128 -35q-30 0 -88.5 17t-89.5 17q-59 0 -111 -32l-56 107q46 32 75 79.5t29 99.5q0 37 -9 64z" />
    <glyph glyph-name="section" unicode="&#xa7;" 
d="M189 397q-29 -21 -29 -47q0 -23 20 -45q6 -7 38 -34q31 -23 92 -72q26 29 26 54q0 16 -7.5 26t-15.5 19q-19 19 -124 99zM42 7h144q-4 -76 53 -76q66 0 62 49q-4 48 -75 99q-115 83 -130 97q-69 69 -69 160q0 42 22 82.5t57 64.5q-45 41 -45 107q0 70 48 121
q55 57 146 57q85 0 138 -44q58 -48 54 -131h-143q3 60 -51 60q-48 0 -48 -47q0 -25 20 -45q24 -24 102 -81q71 -52 101 -88q46 -55 46 -117q0 -50 -19 -86q-14 -26 -37 -45l-25 -17q53 -47 53 -117q0 -98 -61 -148q-57 -46 -158 -46q-86 0 -136.5 53t-48.5 138z" />
    <glyph glyph-name="bullet" unicode="&#x2022;" horiz-adv-x="420" 
d="M398 375q0 -78 -55.5 -133.5t-133.5 -55.5t-132.5 55.5t-54.5 133.5q0 77 54.5 132t132.5 55t133.5 -55t55.5 -132z" />
    <glyph glyph-name="paragraph" unicode="&#xb6;" horiz-adv-x="550" 
d="M381 -116v751h-66v-751h-135v517q-77 0 -123 46t-46 125q0 97 57 140q52 38 159 38h326v-115h-37v-751h-135z" />
    <glyph glyph-name="germandbls" unicode="&#xdf;" 
d="M243 367v115q33 -2 42 28q4 12 4 57q0 44 -4 57q-9 29 -41 29q-41 0 -41 -49v-604h-159v589q0 88 57 135q54 44 150 44q91 0 146.5 -54.5t50.5 -143.5q-3 -51 -16 -78q-16 -34 -56 -56v-2q41 -12 66 -65q19 -42 19 -81v-113q0 -187 -165 -193q-22 -1 -53 16v115
q11 -2 19 -2q27 0 35 25q5 14 5 48v118q0 69 -59 65z" />
    <glyph glyph-name="acute" unicode="&#xb4;" horiz-adv-x="333" 
d="M163 782h208l-171 -148h-137z" />
    <glyph glyph-name="dieresis" unicode="&#xa8;" horiz-adv-x="333" 
d="M196 640v130h158v-130h-158zM-20 770h158v-130h-158v130z" />
    <glyph glyph-name="AE" unicode="&#xc6;" horiz-adv-x="778" 
d="M350 0v162h-142l-47 -162h-184l271 750h490v-150h-222v-140h213v-150h-213v-160h229v-150h-395zM347 600h-16l-86 -288h102v288z" />
    <glyph glyph-name="Oslash" unicode="&#xd8;" horiz-adv-x="556" 
d="M216 532v-238h2l123 227v11q0 101 -62 101q-63 0 -63 -101zM341 224v184h-2l-121 -218q10 -73 62 -73q61 0 61 107zM436 725l54 94l88 -46l-77 -132q16 -39 16 -97v-305q0 -132 -52 -192q-56 -65 -185 -65q-88 0 -142 30l-51 -97l-82 48l67 115q-32 58 -32 161v305
q0 108 62 166t178 58q98 0 156 -43z" />
    <glyph glyph-name="yen" unicode="&#xa5;" 
d="M517 750l-179 -435v-32h91v-62h-91v-49h91v-62h-91v-110h-180v110h-89v62h89v49h-89v62h89v31l-175 436h192l75 -245l77 245h190z" />
    <glyph glyph-name="ordfeminine" unicode="&#xaa;" horiz-adv-x="300" 
d="M187 533v53l-50 -25q-20 -14 -20 -43q0 -37 33 -37q37 0 37 52zM18 277v80h266v-80h-266zM291 422h-95l-5 30h-1q-38 -40 -86 -40q-42 0 -68 25t-26 65q0 44 27 76q14 21 72 40q37 12 42 14q21 8 31 17q5 12 5 21q0 29 -32 29q-25 0 -33 -16q-2 -5 -5 -31h-99
q-7 116 133 116q67 0 97 -20q36 -24 36 -83v-205q0 -17 7 -38z" />
    <glyph glyph-name="ordmasculine" unicode="&#xba;" horiz-adv-x="300" 
d="M15 516v137q0 115 135 115t135 -115v-137q0 -104 -135 -104t-135 104zM118 660v-150q3 -29 32 -29t32 29v150q0 39 -32 39t-32 -39zM15 277v80h270v-80h-270z" />
    <glyph glyph-name="ae" unicode="&#xe6;" horiz-adv-x="722" 
d="M295 227v44l-79 -38q-36 -22 -36 -76q0 -60 53 -60q42 0 55 48q7 24 7 82zM452 351h107v59q-6 61 -49 61q-58 0 -58 -77v-43zM718 246h-264v-82q0 -72 51 -72q34 0 43 34q2 6 5 59h159q11 -203 -213 -203q-42 0 -79 13q-46 17 -62 47q-54 -60 -179 -60q-73 0 -116 42.5
t-43 116.5q0 84 38 126q33 36 118 63l77 24q44 20 44 59q0 58 -56 58q-66 0 -62 -86h-159q-12 191 221 191q84 0 137 -44q54 44 129 44q211 0 211 -201v-129z" />
    <glyph glyph-name="oslash" unicode="&#xf8;" 
d="M201 249l98 141q0 71 -49 71t-49 -65v-147zM299 330l-98 -145v-39q5 -49 49 -49t49 49v184zM379 547l52 86l72 -46l-67 -100q22 -40 22 -103v-228q0 -174 -208 -174q-87 0 -137 33l-55 -89l-69 47l69 102q-16 38 -16 81v228q0 192 208 192q81 0 129 -29z" />
    <glyph glyph-name="questiondown" unicode="&#xbf;" 
d="M320 48h159q5 -105 -56.5 -171t-165.5 -66q-100 0 -161 44q-68 50 -68 146q0 75 66 156q23 26 65 81q18 25 23 48q3 12 7 53h151q2 -97 -25 -141q-65 -81 -68 -85q-43 -61 -43 -101q0 -66 56 -66q39 0 52 33q8 21 8 69zM181 576h169v-171h-169v171z" />
    <glyph glyph-name="exclamdown" unicode="&#xa1;" horiz-adv-x="333" 
d="M122 319h90l43 -320v-188h-176v188zM251 560v-171h-169v171h169z" />
    <glyph glyph-name="florin" unicode="&#x192;" 
d="M355 491h103v-111h-119q-40 -261 -48 -300q-14 -78 -39 -148q-23 -64 -58 -93q-39 -32 -103 -32q-50 0 -87 21l21 131q18 -17 38 -17q13 0 25 7q14 14 23 57q17 77 64 374h-103v111h124q20 167 81 228q44 44 132 44q15 0 79 -14l-27 -127q-37 14 -58 6q-26 -11 -36 -61z
" />
    <glyph glyph-name="guillemotleft" unicode="&#xab;" 
d="M457 123l-180 116v146l180 120v-131l-102 -63l102 -58v-130zM217 123l-180 116v146l180 120v-131l-101 -63l101 -58v-130z" />
    <glyph glyph-name="guillemotright" unicode="&#xbb;" 
d="M463 239l-180 -116v130l101 58l-101 63v131l180 -120v-146zM223 239l-180 -116v130l102 58l-102 63v131l180 -120v-146z" />
    <glyph glyph-name="ellipsis" unicode="&#x2026;" horiz-adv-x="1000" 
d="M251 0h-169v171h169v-171zM584 0h-169v171h169v-171zM918 0h-169v171h169v-171z" />
    <glyph glyph-name="OE" unicode="&#x152;" horiz-adv-x="778" 
d="M340 223v309q0 44 -6 62q-11 32 -46 36q-50 5 -68 -35q-11 -26 -11 -81v-289q0 -55 6 -73q12 -34 55 -34q46 0 61 32q9 20 9 73zM351 -1v65h-2q-42 -82 -136 -82q-107 0 -150 91q-30 64 -30 186v234q0 275 176 275q94 0 143 -80h2v62h382v-150h-227v-139h220v-150h-220
v-162h234v-150h-392z" />
    <glyph glyph-name="oe" unicode="&#x153;" horiz-adv-x="722" 
d="M455 351h102v40q0 76 -42 80q-48 4 -55 -41q-2 -10 -5 -79zM716 407v-161h-261v-48q0 -53 5 -67q11 -34 53 -34q30 0 40 38q4 15 6 58h155q3 -211 -208 -211q-81 0 -129 57q-51 -57 -144 -57q-110 0 -157 56q-41 50 -41 155v173q0 103 42 153q47 57 152 57q97 0 150 -59
q58 59 142 59q85 0 140 -45t55 -124zM296 147v262q-7 52 -52 52q-50 0 -50 -52v-262q0 -50 50 -50q47 0 52 50z" />
    <glyph glyph-name="endash" unicode="&#x2013;" 
d="M500 253h-500v115h500v-115z" />
    <glyph glyph-name="emdash" unicode="&#x2014;" horiz-adv-x="1000" 
d="M1000 253h-1000v115h1000v-115z" />
    <glyph glyph-name="quotedblleft" unicode="&#x201c;" 
d="M211 768v0v-57q-42 -1 -64 -27t-20 -69h84v-160h-158v161q0 141 158 152zM451 768v0v-57q-42 -1 -64 -27t-20 -69h84v-160h-158v161q0 141 158 152z" />
    <glyph glyph-name="quotedblright" unicode="&#x201d;" 
d="M289 437v0v57q42 1 64 27t20 69h-84v160h158v-161q0 -141 -158 -152zM49 437v0v57q42 1 64 27t20 69h-84v160h158v-161q0 -141 -158 -152z" />
    <glyph glyph-name="quoteleft" unicode="&#x2018;" horiz-adv-x="278" 
d="M220 768v0v-57q-42 -1 -64 -27t-20 -69h84v-160h-158v161q0 141 158 152z" />
    <glyph glyph-name="quoteright" unicode="&#x2019;" horiz-adv-x="278" 
d="M58 437v0v57q42 1 64 27t20 69h-84v160h158v-161q0 -141 -158 -152z" />
    <glyph glyph-name="fraction" unicode="&#x2044;" horiz-adv-x="167" 
d="M-81 0h-87l410 750h84z" />
    <glyph glyph-name="currency" unicode="&#xa4;" 
d="M0 137l44 44q-37 66 -37 128q0 70 37 131l-44 43l79 80l44 -44q63 38 129 38q73 0 134 -38l44 44l79 -80l-44 -43q36 -63 36 -130q0 -73 -36 -129l44 -44l-79 -79l-44 44q-65 -39 -129 -39q-74 0 -134 39l-44 -44zM254 187q52 0 87.5 36.5t35.5 86.5t-35.5 86.5
t-87.5 36.5t-87.5 -36.5t-35.5 -86.5t35.5 -86.5t87.5 -36.5z" />
    <glyph glyph-name="guilsinglleft" unicode="&#x2039;" horiz-adv-x="278" 
d="M234 123l-181 116v146l181 120v-131l-102 -63l102 -58v-130z" />
    <glyph glyph-name="guilsinglright" unicode="&#x203a;" horiz-adv-x="278" 
d="M44 123v130l102 58l-102 63v131l181 -120v-146z" />
    <glyph glyph-name="fi" unicode="&#xf001;" horiz-adv-x="556" 
d="M503 0h-159v560h159v-560zM503 615h-159v135h159v-135zM240 750h70v-115h-34q-34 0 -34 -19v-56h68v-115h-68v-445h-159v445h-64v115h63v48q0 78 39 110t119 32z" />
    <glyph glyph-name="fl" unicode="&#xf002;" horiz-adv-x="556" 
d="M503 0h-159v750h159v-750zM240 750h70v-115h-34q-34 0 -34 -19v-56h68v-115h-68v-445h-159v445h-64v115h63v48q0 78 39 110t119 32z" />
    <glyph glyph-name="daggerdbl" unicode="&#x2021;" 
d="M171 -171v209h-144v135h144v222h-144v135h144v220h159v-220h142v-135h-142v-222h144v-135h-144v-209h-159z" />
    <glyph glyph-name="periodcentered" horiz-adv-x="333" 
d="M251 164h-169v171h169v-171z" />
    <glyph glyph-name="quotesinglbase" unicode="&#x201a;" horiz-adv-x="278" 
d="M60 -152v0v57q42 1 64 27t20 69h-84v160h158v-161q0 -141 -158 -152z" />
    <glyph glyph-name="quotedblbase" unicode="&#x201e;" 
d="M292 -152v0v57q42 1 64 27t20 69h-84v160h158v-161q0 -141 -158 -152zM51 -152v0v57q42 1 64 27t20 69h-84v160h158v-161q0 -141 -158 -152z" />
    <glyph glyph-name="perthousand" unicode="&#x2030;" horiz-adv-x="1111" 
d="M579 750l-339 -768h-82l338 768h83zM158 752q88 0 126 -46q35 -43 35 -140q0 -91 -28 -133q-36 -54 -132 -54q-90 0 -128 50q-32 43 -32 137q0 186 159 186zM158 661q-30 1 -36 -34q-2 -9 -2 -59q0 -58 2 -66q6 -32 37 -32q29 0 36 37q3 14 3 61q0 51 -1 57q-7 35 -39 36
zM579 369q88 0 126 -46q35 -43 35 -140q0 -91 -28 -133q-36 -54 -132 -54q-90 0 -128 50q-32 43 -32 137q0 186 159 186zM579 278q-30 1 -36 -34q-2 -9 -2 -59q0 -58 2 -66q6 -32 37 -32q29 0 36 37q3 14 3 61q0 51 -1 57q-7 35 -39 36zM952 369q88 0 126 -46
q35 -43 35 -140q0 -91 -28 -133q-36 -54 -132 -54q-90 0 -128 50q-32 43 -32 137q0 186 159 186zM952 278q-30 1 -36 -34q-2 -9 -2 -59q0 -58 2 -66q6 -32 37 -32q29 0 36 37q3 14 3 61q0 51 -1 57q-7 35 -39 36z" />
    <glyph glyph-name="dotlessi" unicode="&#x131;" horiz-adv-x="278" 
d="M219 0h-159v560h159v-560z" />
    <glyph glyph-name="circumflex" unicode="&#x2c6;" horiz-adv-x="333" 
d="M-36 634l120 148h165l121 -148h-148l-55 75l-56 -75h-147z" />
    <glyph glyph-name="tilde" unicode="&#x2dc;" horiz-adv-x="333" 
d="M237 640q-32 0 -79.5 18.5t-63.5 18.5q-36 0 -44 -43h-79q27 141 123 141q33 0 82 -19.5t64 -19.5t28 11.5t14 25.5h80q-7 -58 -36 -93q-33 -40 -89 -40z" />
    <glyph glyph-name="macron" unicode="&#xaf;" horiz-adv-x="333" 
d="M355 663h-376v90h376v-90z" />
    <glyph glyph-name="macron" unicode="&#x2c9;" horiz-adv-x="333" 
d="M355 663h-376v90h376v-90z" />
    <glyph glyph-name="breve" unicode="&#x2d8;" horiz-adv-x="333" 
d="M-14 787h79q7 -62 106 -62q41 0 62 11q27 14 38 51h77q-1 -73 -56 -115q-51 -38 -126 -38q-170 0 -180 153z" />
    <glyph glyph-name="dotaccent" unicode="&#x2d9;" horiz-adv-x="333" 
d="M87 770h159v-130h-159v130z" />
    <glyph glyph-name="ring" unicode="&#x2da;" horiz-adv-x="333" 
d="M167 635q-46 0 -79.5 33.5t-33.5 79.5t33.5 79t79.5 33t79 -33t33 -79t-33 -79.5t-79 -33.5zM167 800q-20 0 -36 -15.5t-16 -36.5t15.5 -36.5t36.5 -15.5t36.5 16t15.5 36t-16 36t-36 16z" />
    <glyph glyph-name="cedilla" unicode="&#xb8;" horiz-adv-x="333" 
d="M38 -204l21 46q73 -20 86 -20q21 0 37 10t15 27q-1 33 -40 35q-21 1 -42 -10l-26 24l56 92h58l-40 -64q16 6 39 5q38 -1 64 -20q30 -21 30 -57q0 -45 -42 -72q-37 -24 -84 -24q-51 0 -132 28z" />
    <glyph glyph-name="hungarumlaut" unicode="&#x2dd;" horiz-adv-x="333" 
d="M-86 634l99 148h210l-173 -148h-136zM212 634l99 148h210l-173 -148h-136z" />
    <glyph glyph-name="ogonek" unicode="&#x2db;" horiz-adv-x="333" 
d="M278 -104v-86q-43 -15 -89 -15q-49 0 -81 24q-35 27 -35 75t83 106h83v-2q-56 -29 -56 -65q0 -19 14 -34t33 -15q14 0 48 12z" />
    <glyph glyph-name="caron" unicode="&#x2c7;" horiz-adv-x="333" 
d="M167 707l55 75h148l-121 -148h-165l-120 148h147z" />
    <glyph glyph-name="Lslash" unicode="&#x141;" horiz-adv-x="444" 
d="M213 750v-223l61 43v-132l-61 -43v-245h215v-150h-391v288l-59 -42v132l59 42v330h176z" />
    <glyph glyph-name="lslash" unicode="&#x142;" horiz-adv-x="278" 
d="M58 410v340h159v-252l65 37v-107l-65 -37v-391h-159v303l-65 -37v107z" />
    <glyph glyph-name="Eth" unicode="&#xd0;" horiz-adv-x="556" 
d="M66 443v307h191q138 0 198 -35q79 -46 79 -185v-333q0 -114 -75 -162q-55 -35 -156 -35h-237v308h-56v135h56zM242 615v-172h52v-135h-52v-173q81 -5 102 29q14 23 14 111v245q0 62 -26 80q-20 13 -90 15z" />
    <glyph glyph-name="eth" unicode="&#xf0;" 
d="M197 396v-250q5 -49 49 -49t49 49v250q0 65 -49 65t-49 -65zM86 672v78q113 0 183 -23l69 49l42 -48l-45 -30q119 -75 119 -314v-228q0 -174 -208 -174q-93 0 -147 39q-61 45 -61 135v228q0 192 208 192q22 0 34 -1q-10 48 -33 64l-67 -45l-37 42l37 27q-35 6 -94 9z" />
    <glyph glyph-name="Scaron" unicode="&#x160;" 
d="M16 251h163v-53q0 -81 70 -81q29 0 44 22t15 53q0 41 -32 71q-14 13 -66 44q-97 57 -132 96q-52 60 -52 152q0 104 60 159q57 54 161 54q112 0 172 -69q57 -65 51 -174h-162q-2 52 -8 69q-12 36 -50 39q-55 4 -61 -50q-6 -53 53 -92l116.5 -71.5t82.5 -76.5
q30 -52 30 -137q0 -108 -58.5 -166t-167.5 -58q-114 0 -175 57q-54 51 -54 132v80zM251 877l55 75h148l-121 -148h-165l-120 148h147z" />
    <glyph glyph-name="scaron" unicode="&#x161;" horiz-adv-x="444" 
d="M423 394h-149q-5 43 -9 53q-11 24 -44 24q-53 0 -53 -47q0 -34 50 -57l100 -45q55 -28 80 -60q33 -41 33 -102q0 -89 -62 -136q-56 -42 -150 -42q-216 0 -208 189h152q-4 -84 57 -84q57 0 57 53q0 27 -21 43l-107 49q-65 31 -96 66q-40 46 -40 105q0 86 62 132
q55 41 145 41q92 0 147 -44q60 -49 56 -138zM213 687l55 75h148l-121 -148h-165l-120 148h147z" />
    <glyph glyph-name="Yacute" unicode="&#xdd;" horiz-adv-x="556" 
d="M189 750l88 -245l92 245h176l-181 -435v-315h-176v315l-177 435h178zM308 905h145l-119 -104h-96z" />
    <glyph glyph-name="yacute" unicode="&#xfd;" horiz-adv-x="444" 
d="M166 560l54 -362l57 362h156l-101 -479q-19 -88 -30 -125q-25 -80 -61 -111q-41 -34 -122 -34q-13 0 -63 5v118l31 -4q46 -6 48 28q1 20 -6 48l-12 47l-111 507h160zM239 703h130l-107 -93h-86z" />
    <glyph glyph-name="Thorn" unicode="&#xde;" horiz-adv-x="556" 
d="M229 469v-188l51 2q30 3 48 17q22 24 22 76q0 72 -33 87q-17 6 -69 6h-19zM229 0h-176v750h176v-146h33q160 0 215 -62q49 -55 49 -163q0 -163 -99 -209q-40 -19 -98 -23q-16 -1 -100 -1v-146z" />
    <glyph glyph-name="thorn" unicode="&#xfe;" 
d="M299 209v145q0 92 -46 92q-52 0 -52 -99v-132q0 -104 49 -103q33 0 44 35q5 18 5 62zM42 750h148v-258h2q46 83 130 84q72 1 107 -63q29 -50 29 -129v-194q0 -203 -139 -208q-67 -2 -116 71h-2v-242h-159v939z" />
    <glyph glyph-name="Zcaron" unicode="&#x17d;" horiz-adv-x="444" 
d="M26 600v150h398v-140l-218 -460h228v-150h-424v134l222 466h-206zM223 877l55 75h148l-121 -148h-165l-120 148h147z" />
    <glyph glyph-name="zcaron" unicode="&#x17e;" horiz-adv-x="389" 
d="M25 435v125h350v-116l-182 -319h182v-125h-361v111l182 324h-171zM195 687l55 75h148l-121 -148h-165l-120 148h147z" />
    <glyph glyph-name="onehalf" unicode="&#xbd;" horiz-adv-x="750" 
d="M195 0h-87l410 750h84zM109 310v304h-99v69q113 -2 129 67h73v-440h-103zM552 309v-22h-103v24q0 139 149 139q141 0 141 -124q0 -75 -61 -129l-42 -37q-59 -52 -64 -79h168v-81h-292v15q0 91 102 191l49 48q32 31 32 77q0 47 -41 44q-38 -2 -38 -66z" />
    <glyph glyph-name="onequarter" unicode="&#xbc;" horiz-adv-x="750" 
d="M509 161h81v146h-2zM428 86v84l152 270h113v-279h43v-75h-43v-86h-103v86h-162zM217 0h-87l410 750h84zM113 310v304h-99v69q113 -2 129 67h73v-440h-103z" />
    <glyph glyph-name="onesuperior" unicode="&#xb9;" horiz-adv-x="300" 
d="M148 310v304h-99v69q113 -2 129 67h73v-440h-103z" />
    <glyph glyph-name="threequarters" unicode="&#xbe;" horiz-adv-x="750" 
d="M516 161h81v146h-2zM435 86v84l152 270h113v-279h43v-75h-43v-86h-103v86h-162zM247 0h-87l410 750h84zM91 493v72q33 1 35 2q20 2 32 10q20 13 20 51q0 46 -38 46q-24 0 -31 -24q-1 -2 -4 -42h-104v33q0 48 46 80q41 29 96 29q139 0 139 -116q0 -72 -66 -100v-1
q77 -18 77 -111q0 -133 -150 -133q-67 0 -104.5 32.5t-37.5 92.5v31h103q3 -49 4 -52q8 -29 37 -29q40 0 40 58q0 49 -25 63q-12 7 -34 7q-17 1 -35 1z" />
    <glyph glyph-name="threesuperior" unicode="&#xb3;" horiz-adv-x="300" 
d="M94 493v72q33 1 35 2q20 2 32 10q20 13 20 51q0 46 -38 46q-24 0 -31 -24q-1 -2 -4 -42h-104v33q0 48 46 80q41 29 96 29q139 0 139 -116q0 -72 -66 -100v-1q77 -18 77 -111q0 -133 -150 -133q-67 0 -104.5 32.5t-37.5 92.5v31h103q3 -49 4 -52q8 -29 37 -29q40 0 40 58
q0 49 -25 63q-12 7 -34 7q-17 1 -35 1z" />
    <glyph glyph-name="twosuperior" unicode="&#xb2;" horiz-adv-x="300" 
d="M108 609v-22h-103v24q0 139 149 139q141 0 141 -124q0 -75 -61 -129l-42 -37q-59 -52 -64 -79h168v-81h-292v15q0 91 102 191l49 48q32 31 32 77q0 47 -41 44q-38 -2 -38 -66z" />
    <glyph glyph-name="brokenbar" unicode="&#xa6;" horiz-adv-x="250" 
d="M54 0v300h142v-300h-142zM54 750h142v-300h-142v300z" />
    <glyph glyph-name="minus" unicode="&#x2212;" 
d="M26 192v115h449v-115h-449z" />
    <glyph glyph-name="multiply" unicode="&#xd7;" 
d="M169 255l-136 136l82 81l135 -136l136 136l81 -81l-135 -136l135 -136l-81 -81l-136 136l-135 -136l-82 81z" />
    <glyph glyph-name="Adieresis" unicode="&#xc4;" horiz-adv-x="556" 
d="M186 0h-177l164 750h212l163 -750h-178l-25 146h-138zM328 278l-49 336h-2l-51 -336h102zM308 830v130h158v-130h-158zM92 960h158v-130h-158v130z" />
    <glyph glyph-name="Aring" unicode="&#xc5;" horiz-adv-x="556" 
d="M186 0h-177l164 750h212l163 -750h-178l-25 146h-138zM328 278l-49 336h-2l-51 -336h102zM279 765q-46 0 -79.5 33.5t-33.5 79.5t33.5 79t79.5 33t79 -33t33 -79t-33 -79.5t-79 -33.5zM279 930q-20 0 -36 -15.5t-16 -36.5t15.5 -36.5t36.5 -15.5t36.5 16t15.5 36t-16 36
t-36 16z" />
    <glyph glyph-name="Ccedilla" unicode="&#xc7;" horiz-adv-x="556" 
d="M515 488h-176v48q0 96 -56 97q-39 0 -53.5 -19t-14.5 -59l-1 -371q0 -67 63 -67q65 0 65 108v68h176v-92q0 -102 -59 -158q-65 -61 -195 -61q-225 0 -225 239v308q0 239 236 239q240 0 240 -217v-63zM150 -204l21 46q73 -20 86 -20q21 0 37 10t15 27q-1 33 -40 35
q-21 1 -42 -10l-26 24l56 92h58l-40 -64q16 6 39 5q38 -1 64 -20q30 -21 30 -57q0 -45 -42 -72q-37 -24 -84 -24q-51 0 -132 28z" />
    <glyph glyph-name="Eacute" unicode="&#xc9;" 
d="M461 0h-415v750h403v-150h-227v-138h220v-150h-220v-162h239v-150zM267 915h145l-119 -104h-96z" />
    <glyph glyph-name="Ntilde" unicode="&#xd1;" horiz-adv-x="556" 
d="M333 0l-137 420l-2 -2l16 -418h-167v750h181l136 -419h3l-17 419h167v-750h-180zM349 810q-32 0 -79.5 18.5t-63.5 18.5q-36 0 -44 -43h-79q27 141 123 141q33 0 82 -19.5t64 -19.5t28 11.5t14 25.5h80q-7 -58 -36 -93q-33 -40 -89 -40z" />
    <glyph glyph-name="Odieresis" unicode="&#xd6;" horiz-adv-x="556" 
d="M341 224v308q0 101 -62 101q-63 0 -63 -101v-308q0 -107 64 -107q61 0 61 107zM517 544v-305q0 -132 -52 -192q-56 -65 -185 -65q-130 0 -187 65q-53 61 -53 192v305q0 108 62 166t178 58q115 0 176 -58t61 -166zM308 830v130h158v-130h-158zM92 960h158v-130h-158v130z
" />
    <glyph glyph-name="Udieresis" unicode="&#xdc;" horiz-adv-x="556" 
d="M42 207v543h176v-566q0 -67 61 -67q60 0 60 72v561h176v-543q0 -225 -237 -225q-236 0 -236 225zM308 830v130h158v-130h-158zM92 960h158v-130h-158v130z" />
    <glyph glyph-name="aacute" unicode="&#xe1;" 
d="M301 184v88q-39 -16 -82 -42q-34 -20 -35 -71q-2 -58 59 -60q30 -1 46 29q12 23 12 56zM318 0l-11 50q-58 -67 -137 -68q-68 -1 -107 40t-39 110q0 77 33 121.5t106 68.5l95 31q42 20 43 59q1 23 -13 40t-37 18q-39 1 -52 -26q-9 -18 -9 -61h-159q0 192 215 193
q106 1 154 -31q60 -39 60 -140v-343q0 -31 13 -62h-155zM271 724h130l-107 -93h-86z" />
    <glyph glyph-name="agrave" unicode="&#xe0;" 
d="M301 184v88q-39 -16 -82 -42q-34 -20 -35 -71q-2 -58 59 -60q30 -1 46 29q12 23 12 56zM318 0l-11 50q-58 -67 -137 -68q-68 -1 -107 40t-39 110q0 77 33 121.5t106 68.5l95 31q42 20 43 59q1 23 -13 40t-37 18q-39 1 -52 -26q-9 -18 -9 -61h-159q0 192 215 193
q106 1 154 -31q60 -39 60 -140v-343q0 -31 13 -62h-155zM100 725h131l63 -94h-86z" />
    <glyph glyph-name="acircumflex" unicode="&#xe2;" 
d="M301 184v88q-39 -16 -82 -42q-34 -20 -35 -71q-2 -58 59 -60q30 -1 46 29q12 23 12 56zM318 0l-11 50q-58 -67 -137 -68q-68 -1 -107 40t-39 110q0 77 33 121.5t106 68.5l95 31q42 20 43 59q1 23 -13 40t-37 18q-39 1 -52 -26q-9 -18 -9 -61h-159q0 192 215 193
q106 1 154 -31q60 -39 60 -140v-343q0 -31 13 -62h-155zM121 620l76 93h104l76 -93h-94l-34 47l-35 -47h-93z" />
    <glyph glyph-name="adieresis" unicode="&#xe4;" 
d="M301 184v88q-30 -13 -80 -41q-37 -27 -37 -72q0 -60 59 -60q58 0 58 85zM318 0l-11 50q-62 -68 -137 -68q-67 0 -106.5 41.5t-39.5 108.5q0 109 72 159q23 15 133 51q72 23 72 70q0 24 -13.5 41t-36.5 17q-39 0 -51 -26q-7 -14 -10 -61h-159q-10 193 215 193
q117 0 165.5 -39t48.5 -132v-343q0 -25 13 -62h-155zM280 640v130h158v-130h-158zM64 770h158v-130h-158v130z" />
    <glyph glyph-name="atilde" unicode="&#xe3;" 
d="M301 184v88q-39 -16 -82 -42q-34 -20 -35 -71q-2 -58 59 -60q30 -1 46 29q12 23 12 56zM318 0l-11 50q-58 -67 -137 -68q-68 -1 -107 40t-39 110q0 77 33 121.5t106 68.5l95 31q42 20 43 59q1 23 -13 40t-37 18q-39 1 -52 -26q-9 -18 -9 -61h-159q0 192 215 193
q106 1 154 -31q60 -39 60 -140v-343q0 -31 13 -62h-155zM297 636q-28 0 -52 12q-13 4 -38 10q-22 0 -28 -27h-49q13 87 77 89q23 1 73 -19q7 -3 19 -5q9 0 17.5 7.5t8.5 16.5h50q-7 -84 -78 -84z" />
    <glyph glyph-name="aring" unicode="&#xe5;" 
d="M301 184v88q-30 -13 -80 -41q-37 -27 -37 -72q0 -60 59 -60q58 0 58 85zM318 0l-11 50q-62 -68 -137 -68q-67 0 -106.5 41.5t-39.5 108.5q0 109 72 159q23 15 133 51q72 23 72 70q0 24 -13.5 41t-36.5 17q-39 0 -51 -26q-7 -14 -10 -61h-159q-10 193 215 193
q117 0 165.5 -39t48.5 -132v-343q0 -25 13 -62h-155zM251 635q-46 0 -79.5 33.5t-33.5 79.5t33.5 79t79.5 33t79 -33t33 -79t-33 -79.5t-79 -33.5zM251 800q-20 0 -36 -15.5t-16 -36.5t15.5 -36.5t36.5 -15.5t36.5 16t15.5 36t-16 36t-36 16z" />
    <glyph glyph-name="ccedilla" unicode="&#xe7;" 
d="M456 352h-150l-1 10q-1 22 -6 64q-11 35 -43 35q-48 0 -48 -68v-231q0 -65 51 -65q38 0 47 49q2 14 2 81h154q0 -90 -13 -133q-29 -98 -150 -109q-32 -3 -53 -3q-197 0 -197 174v228q0 193 197 192q117 -1 167 -54.5t43 -169.5zM122 -204l21 46q73 -20 86 -20q21 0 37 10
t15 27q-1 33 -40 35q-21 1 -42 -10l-26 24l56 92h58l-40 -64q16 6 39 5q38 -1 64 -20q30 -21 30 -57q0 -45 -42 -72q-37 -24 -84 -24q-51 0 -132 28z" />
    <glyph glyph-name="eacute" unicode="&#xe9;" 
d="M197 359h110v55q0 25 -15 41t-39 16q-56 0 -56 -75v-37zM466 254h-269v-98q0 -58 49 -59q38 -1 50 31q6 16 6 66h158q0 -212 -208 -212q-94 0 -150 39q-64 45 -64 135v228q0 192 214 192t214 -162v-160zM271 724h130l-107 -93h-86z" />
    <glyph glyph-name="egrave" unicode="&#xe8;" 
d="M197 359h110v55q0 25 -15 41t-39 16q-56 0 -56 -75v-37zM466 254h-269v-98q0 -58 49 -59q38 -1 50 31q6 16 6 66h158q0 -212 -208 -212q-94 0 -150 39q-64 45 -64 135v228q0 192 214 192t214 -162v-160zM99 725h131l63 -94h-86z" />
    <glyph glyph-name="ecircumflex" unicode="&#xea;" 
d="M197 359h110v55q0 25 -15 41t-39 16q-56 0 -56 -75v-37zM466 254h-269v-98q0 -58 49 -59q38 -1 50 31q6 16 6 66h158q0 -212 -208 -212q-94 0 -150 39q-64 45 -64 135v228q0 192 214 192t214 -162v-160zM121 620l76 93h103l77 -93h-94l-34 47l-35 -47h-93z" />
    <glyph glyph-name="edieresis" unicode="&#xeb;" 
d="M197 359h110v55q0 20 -12 36q-15 21 -42 21q-56 0 -56 -75v-37zM466 254h-269v-98q0 -56 49 -59q38 -2 49 30q3 10 7 67h158q12 -209 -208 -212q-94 -1 -150 38q-64 46 -64 136v228q0 190 214 192q93 1 149 -35q65 -42 65 -127v-160zM280 640v130h158v-130h-158zM64 770
h158v-130h-158v130z" />
    <glyph glyph-name="iacute" unicode="&#xed;" horiz-adv-x="278" 
d="M219 0h-159v560h159v-560zM161 715h130l-107 -93h-86z" />
    <glyph glyph-name="igrave" unicode="&#xec;" horiz-adv-x="278" 
d="M219 0h-159v560h159v-560zM-9 715h131l63 -94h-86z" />
    <glyph glyph-name="icircumflex" unicode="&#xee;" horiz-adv-x="278" 
d="M219 0h-159v560h159v-560zM-73 614l120 148h165l121 -148h-148l-55 75l-56 -75h-147z" />
    <glyph glyph-name="idieresis" unicode="&#xef;" horiz-adv-x="278" 
d="M219 0h-159v560h159v-560zM169 640v130h158v-130h-158zM-47 770h158v-130h-158v130z" />
    <glyph glyph-name="ntilde" unicode="&#xf1;" 
d="M49 560h148v-70h2q12 34 43.5 60t67.5 26q59 0 100.5 -31t41.5 -86v-459h-159v400q0 48 -42 46q-43 -2 -43 -46v-400h-159v560zM321 620q-32 0 -79.5 18.5t-63.5 18.5q-36 0 -44 -43h-79q27 141 123 141q33 0 82 -19.5t64 -19.5t28 11.5t14 25.5h80q-7 -58 -36 -93
q-33 -40 -89 -40z" />
    <glyph glyph-name="oacute" unicode="&#xf3;" 
d="M42 156v228q0 192 208 192t208 -192v-228q0 -172 -208 -174q-93 -1 -147 39q-61 45 -61 135zM201 396v-250q5 -48 49 -49q43 -1 49 49v250q0 65 -49 65t-49 -65zM271 724h130l-107 -93h-86z" />
    <glyph glyph-name="ograve" unicode="&#xf2;" 
d="M42 156v228q0 192 208 192t208 -192v-228q0 -172 -208 -174q-93 -1 -147 39q-61 45 -61 135zM201 396v-250q5 -48 49 -49q43 -1 49 49v250q0 65 -49 65t-49 -65zM99 725h131l63 -94h-86z" />
    <glyph glyph-name="ocircumflex" unicode="&#xf4;" 
d="M42 156v228q0 192 208 192t208 -192v-228q0 -172 -208 -174q-93 -1 -147 39q-61 45 -61 135zM201 396v-250q5 -48 49 -49q43 -1 49 49v250q0 65 -49 65t-49 -65zM121 620l76 93h104l76 -93h-94l-34 47l-35 -47h-93z" />
    <glyph glyph-name="odieresis" unicode="&#xf6;" 
d="M42 156v228q0 192 208 192t208 -192v-228q0 -174 -208 -174q-93 0 -147 39q-61 45 -61 135zM201 396v-250q5 -49 49 -49t49 49v250q0 65 -49 65t-49 -65zM280 640v130h158v-130h-158zM64 770h158v-130h-158v130z" />
    <glyph glyph-name="otilde" unicode="&#xf5;" 
d="M42 156v228q0 192 208 192t208 -192v-228q0 -172 -208 -174q-93 -1 -147 39q-61 45 -61 135zM201 396v-250q5 -48 49 -49q43 -1 49 49v250q0 65 -49 65t-49 -65zM297 636q-28 0 -52 12q-13 4 -38 10q-22 0 -28 -27h-49q13 87 77 89q23 1 73 -19q7 -3 19 -5q9 0 17.5 7.5
t8.5 16.5h50q-7 -84 -78 -84z" />
    <glyph glyph-name="uacute" unicode="&#xfa;" 
d="M449 0h-148v69q-14 -37 -45 -62t-68 -25q-142 -1 -142 118v460h159v-401q0 -47 39 -47q46 0 46 47v401h159v-560zM271 714h130l-107 -93h-86z" />
    <glyph glyph-name="ugrave" unicode="&#xf9;" 
d="M449 0h-148v69q-14 -37 -45 -62t-68 -25q-142 -1 -142 118v460h159v-401q0 -47 39 -47q46 0 46 47v401h159v-560zM99 720h131l63 -94h-86z" />
    <glyph glyph-name="ucircumflex" unicode="&#xfb;" 
d="M449 0h-148v69h-2q-12 -34 -42 -60q-33 -27 -69 -27q-142 0 -142 118v460h159v-401q0 -49 39 -47q46 2 46 47v401h159v-560zM48 624l120 148h165l121 -148h-148l-55 75l-56 -75h-147z" />
    <glyph glyph-name="udieresis" unicode="&#xfc;" 
d="M449 0h-148v69h-2q-12 -34 -42 -60q-33 -27 -69 -27q-142 0 -142 118v460h159v-401q0 -49 39 -47q46 2 46 47v401h159v-560zM280 640v130h158v-130h-158zM64 770h158v-130h-158v130z" />
    <glyph glyph-name="degree" unicode="&#xb0;" horiz-adv-x="400" 
d="M350 600q0 -62 -44 -106t-106 -44t-106 44t-44 106t44 106t106 44t106 -44t44 -106zM244 600q0 18 -13 31t-31 13t-31 -13t-13 -31t13 -31t31 -13t31 13t13 31z" />
    <glyph glyph-name="registered" unicode="&#xae;" horiz-adv-x="830" 
d="M415 -18q-193 0 -300 127q-94 109 -94 267q0 155 93 264q108 128 301 128q185 0 294 -119q100 -110 100 -273q0 -167 -108 -279q-111 -115 -286 -115zM413 672q-132 0 -213 -82t-81 -214q0 -134 80.5 -216t213.5 -82q132 0 215 84t83 218q0 131 -82.5 211.5t-215.5 80.5z
M326 331v-170h-93v425h238q142 0 142 -131q0 -106 -116 -114l103 -180h-107l-94 170h-73zM326 404h124q38 0 53 10q18 14 18 52q0 48 -92 48h-103v-110z" />
    <glyph glyph-name="copyright" unicode="&#xa9;" horiz-adv-x="830" 
d="M526 306h89q-8 -69 -60.5 -111t-123.5 -42q-97 0 -157 65t-60 162q0 99 58.5 162.5t156.5 63.5q72 0 122.5 -39.5t63.5 -109.5h-89q-13 73 -99 73q-60 0 -91 -44q-29 -39 -29 -102q0 -62 28 -103q32 -47 90 -47q39 0 67 18q32 20 34 54zM415 -18q-193 0 -300 127
q-94 109 -94 267q0 155 93 264q108 128 301 128q185 0 294 -119q100 -110 100 -273q0 -167 -108 -279q-111 -115 -286 -115zM413 672q-132 0 -213 -82t-81 -214q0 -134 80.5 -216t213.5 -82q132 0 215 84t83 218q0 131 -82.5 211.5t-215.5 80.5z" />
    <glyph glyph-name="trademark" unicode="&#x2122;" horiz-adv-x="860" 
d="M858 750v-404h-93v316h-2l-112 -316h-62l-112 316h-2v-316h-93v404h147l90 -249h2l90 249h147zM338 750v-88h-119v-316h-102v316h-114v88h335z" />
    <glyph glyph-name="plusminus" unicode="&#xb1;" 
d="M193 392v118h115v-118h167v-115h-167v-125h-115v125h-167v115h167zM26 -12v115h449v-115h-449z" />
    <glyph glyph-name="mu" unicode="&#xb5;" 
d="M449 0h-148v69h-2q-10 -31 -36.5 -54t-57.5 -23v-181h-159v749h159v-401q0 -49 39 -47q46 2 46 47v401h159v-560z" />
    <glyph glyph-name="mu" unicode="&#x3bc;" 
d="M449 0h-148v69h-2q-10 -31 -36.5 -54t-57.5 -23v-181h-159v749h159v-401q0 -49 39 -47q46 2 46 47v401h159v-560z" />
    <glyph glyph-name="logicalnot" unicode="&#xac;" 
d="M360 115v175h-334v115h449v-290h-115z" />
    <glyph glyph-name="Agrave" unicode="&#xc0;" horiz-adv-x="556" 
d="M186 0h-177l164 750h212l163 -750h-178l-25 146h-138zM328 278l-49 336l-53 -336h102zM115 910h146l70 -104h-96z" />
    <glyph glyph-name="Atilde" unicode="&#xc3;" horiz-adv-x="556" 
d="M186 0h-177l164 750h212l163 -750h-178l-25 146h-138zM328 278l-49 336l-53 -336h102zM334 810q-25 -1 -63 15q-15 6 -37 10q-24 0 -31 -30h-55q17 97 86 99q14 0 31 -4q6 0 25.5 -9.5t25.5 -10.5t20 -3q29 0 29 26h56q-7 -91 -87 -93z" />
    <glyph glyph-name="Otilde" unicode="&#xd5;" horiz-adv-x="556" 
d="M341 224v308q0 46 -9 67q-14 34 -53 34q-63 0 -63 -101v-308q0 -106 64 -107q61 -1 61 107zM517 544v-305q0 -132 -51 -192q-56 -64 -186 -65q-129 -1 -187 65q-53 61 -53 192v305q0 222 240 224q112 1 174.5 -56t62.5 -168zM334 824q-25 -1 -63 15q-15 6 -37 10
q-24 0 -31 -30h-55q17 97 86 99q14 0 31 -4q6 0 25.5 -9.5t25.5 -10.5t20 -3q29 0 29 26h56q-7 -91 -87 -93z" />
    <glyph glyph-name="divide" unicode="&#xf7;" 
d="M26 192v115h449v-115h-449zM171 492h159v-115h-159v115zM171 122h159v-115h-159v115z" />
    <glyph glyph-name="ydieresis" unicode="&#xff;" horiz-adv-x="444" 
d="M166 560l54 -362h2l55 362h156l-101 -479q-25 -119 -31 -138q-20 -66 -57 -96q-43 -36 -125 -36q-15 0 -35.5 2.5t-27.5 2.5v118q20 -2 31 -4q15 -3 31.5 5t16.5 23q0 13 -18 95l-111 507h160zM252 640v130h158v-130h-158zM36 770h158v-130h-158v130z" />
    <glyph glyph-name="Ydieresis" unicode="&#x178;" horiz-adv-x="556" 
d="M189 750l88 -245h2l90 245h176l-181 -435v-315h-176v315l-177 435h178zM308 830v130h158v-130h-158zM92 960h158v-130h-158v130z" />
    <glyph glyph-name="Acircumflex" unicode="&#xc2;" horiz-adv-x="556" 
d="M186 0h-177l164 750h212l163 -750h-178l-25 146h-138zM328 278l-49 336l-53 -336h102zM136 790l84 103h115l85 -103h-104l-38 52l-39 -52h-103z" />
    <glyph glyph-name="Ecircumflex" unicode="&#xca;" 
d="M461 0h-415v750h403v-150h-227v-138h220v-150h-220v-162h239v-150zM103 802l84 103h115l85 -103h-104l-38 52l-39 -52h-103z" />
    <glyph glyph-name="Aacute" unicode="&#xc1;" horiz-adv-x="556" 
d="M186 0h-177l164 750h212l163 -750h-178l-25 146h-138zM328 278l-49 336l-53 -336h102zM302 909h145l-119 -104h-96z" />
    <glyph glyph-name="Edieresis" unicode="&#xcb;" 
d="M461 0h-415v750h403v-150h-227v-138h220v-150h-220v-162h239v-150zM280 830v130h158v-130h-158zM64 960h158v-130h-158v130z" />
    <glyph glyph-name="Egrave" unicode="&#xc8;" 
d="M461 0h-415v750h403v-150h-227v-138h220v-150h-220v-162h239v-150zM80 915h146l70 -104h-96z" />
    <glyph glyph-name="Iacute" unicode="&#xcd;" horiz-adv-x="278" 
d="M227 0h-176v750h176v-750zM157 915h145l-119 -104h-96z" />
    <glyph glyph-name="Icircumflex" unicode="&#xce;" horiz-adv-x="278" 
d="M227 0h-176v750h176v-750zM-63 804l120 148h165l121 -148h-148l-55 75l-56 -75h-147z" />
    <glyph glyph-name="Idieresis" unicode="&#xcf;" horiz-adv-x="278" 
d="M227 0h-176v750h176v-750zM169 830v130h158v-130h-158zM-47 960h158v-130h-158v130z" />
    <glyph glyph-name="Igrave" unicode="&#xcc;" horiz-adv-x="278" 
d="M227 0h-176v750h176v-750zM-28 915h146l70 -104h-96z" />
    <glyph glyph-name="Oacute" unicode="&#xd3;" horiz-adv-x="556" 
d="M341 224v308q0 46 -9 67q-14 34 -53 34q-63 0 -63 -101v-308q0 -106 64 -107q61 -1 61 107zM517 544v-305q0 -132 -51 -192q-56 -64 -186 -65q-129 -1 -187 65q-53 61 -53 192v305q0 222 240 224q112 1 174.5 -56t62.5 -168zM302 925h145l-119 -104h-96z" />
    <glyph glyph-name="Ocircumflex" unicode="&#xd4;" horiz-adv-x="556" 
d="M341 224v308q0 46 -9 67q-14 34 -53 34q-63 0 -63 -101v-308q0 -106 64 -107q61 -1 61 107zM517 544v-305q0 -132 -51 -192q-56 -64 -186 -65q-129 -1 -187 65q-53 61 -53 192v305q0 222 240 224q112 1 174.5 -56t62.5 -168zM138 812l84 103h115l85 -103h-104l-38 52
l-39 -52h-103z" />
    <glyph glyph-name="Ograve" unicode="&#xd2;" horiz-adv-x="556" 
d="M341 224v308q0 46 -9 67q-14 34 -53 34q-63 0 -63 -101v-308q0 -106 64 -107q61 -1 61 107zM517 544v-305q0 -132 -51 -192q-56 -64 -186 -65q-129 -1 -187 65q-53 61 -53 192v305q0 222 240 224q112 1 174.5 -56t62.5 -168zM112 925h146l70 -104h-96z" />
    <glyph glyph-name="Uacute" unicode="&#xda;" horiz-adv-x="556" 
d="M42 207v543h176v-566q0 -66 61 -67q30 -1 47 24q13 19 13 48v561h176v-543q0 -224 -237 -225q-236 -1 -236 225zM305 915h145l-119 -104h-96z" />
    <glyph glyph-name="Ucircumflex" unicode="&#xdb;" horiz-adv-x="556" 
d="M42 207v543h176v-566q0 -67 61 -67q60 0 60 72v561h176v-543q0 -225 -237 -225q-236 0 -236 225zM76 804l120 148h165l121 -148h-148l-55 75l-56 -75h-147z" />
    <glyph glyph-name="Ugrave" unicode="&#xd9;" horiz-adv-x="556" 
d="M42 207v543h176v-566q0 -66 61 -67q30 -1 47 24q13 19 13 48v561h176v-543q0 -224 -237 -225q-236 -1 -236 225zM110 915h146l70 -104h-96z" />
    <glyph glyph-name="glyph231" horiz-adv-x="278" 
 />
    <glyph glyph-name="glyph232" horiz-adv-x="278" 
 />
    <glyph glyph-name="sfthyphen" unicode="&#xad;" horiz-adv-x="338" 
d="M8 174l33 122h246l-33 -122h-246z" />
    <glyph glyph-name="Cacute" unicode="&#x106;" horiz-adv-x="711" 
d="M515 488h-176v48q0 96 -56 97q-39 0 -53.5 -19t-14.5 -59l-1 -371q0 -67 63 -67q65 0 65 108v68h176v-92q0 -102 -59 -158q-65 -61 -195 -61q-225 0 -225 239v308q0 239 236 239q240 0 240 -217v-63zM340 1037h208l-171 -148h-137z" />
    <glyph glyph-name="cacute" unicode="&#x107;" horiz-adv-x="441" 
d="M456 352h-150l-1 10q-1 22 -6 64q-11 35 -43 35q-48 0 -48 -68v-231q0 -65 51 -65q38 0 47 49q2 14 2 81h154q0 -90 -13 -133q-29 -98 -150 -109q-32 -3 -53 -3q-197 0 -197 174v228q0 193 197 192q117 -1 167 -54.5t43 -169.5zM141 782h208l-171 -148h-137z" />
    <glyph glyph-name="Ccaron" unicode="&#x10c;" horiz-adv-x="711" 
d="M515 488h-176v48q0 96 -56 97q-39 0 -53.5 -19t-14.5 -59l-1 -371q0 -67 63 -67q65 0 65 108v68h176v-92q0 -102 -59 -158q-65 -61 -195 -61q-225 0 -225 239v308q0 239 236 239q240 0 240 -217v-63zM344 962l55 75h148l-121 -148h-165l-120 148h147z" />
    <glyph glyph-name="ccaron" unicode="&#x10d;" horiz-adv-x="441" 
d="M456 352h-150l-1 10q-1 22 -6 64q-11 35 -43 35q-48 0 -48 -68v-231q0 -65 51 -65q38 0 47 49q2 14 2 81h154q0 -90 -13 -133q-29 -98 -150 -109q-32 -3 -53 -3q-197 0 -197 174v228q0 193 197 192q117 -1 167 -54.5t43 -169.5zM145 707l55 75h148l-121 -148h-165
l-120 148h147z" />
    <glyph glyph-name="Dslash" unicode="&#x110;" horiz-adv-x="556" 
d="M66 443v307h191q139 0 198 -35q79 -47 79 -185v-333q0 -75 -35 -124q-38 -53 -110 -66q-39 -7 -86 -7h-237v308h-56v135h56zM242 615v-172h52v-135h-52v-173q82 0 102 32q14 22 14 108v245q0 63 -28 81q-20 13 -88 14z" />
    <glyph glyph-name="dcroat" unicode="&#x111;" 
d="M200 347v-145q0 -41 5 -58q10 -32 41 -32q49 0 49 97v132q0 104 -46 105q-49 1 -49 -99zM454 663h35v-58h-35v-605h-148v65q-48 -82 -126 -83q-139 -1 -139 208v194q0 79 28 129q35 63 108 63q71 0 116 -67l2 96h-120v58h120v87h159v-87z" />
    <glyph glyph-name="Gbreve" unicode="&#x11e;" horiz-adv-x="767" 
d="M512 -1h-120l-8 67h-2q-27 -47 -60.5 -65.5t-91.5 -18.5q-197 0 -197 239v308q0 239 236 239q239 0 239 -217v-56h-176v41q0 46 -6 64q-12 32 -49 33q-68 1 -68 -78v-371q0 -67 65 -67q40 0 54 30q8 19 8 66v59h-63v135h239v-408zM182 1042h79q7 -62 106 -62q41 0 62 11
q27 14 38 51h77q-1 -73 -56 -115q-51 -38 -126 -38q-170 0 -180 153z" />
    <glyph glyph-name="gbreve" unicode="&#x11f;" horiz-adv-x="492" 
d="M199 363v-159q0 -60 47 -60q48 0 48 73v155q0 74 -52 74q-43 0 -43 -83zM36 -31h159q0 -32 9 -42q10 -13 43 -11q26 2 37 11t11 35v113h-2q-53 -61 -113 -61q-70 0 -107 56q-33 48 -33 120v194q0 78 29 129q36 64 108 63q86 -1 126 -84h2v68h148v-571q0 -178 -213 -178
q-99 0 -145 31q-56 36 -59 127zM-18 787h79q7 -62 106 -62q41 0 62 11q27 14 38 51h77q-1 -73 -56 -115q-51 -38 -126 -38q-170 0 -180 153z" />
    <glyph glyph-name="Idotaccent" unicode="&#x130;" horiz-adv-x="429" 
d="M227 0h-176v750h176v-750zM114 1025h159v-130h-159v130z" />
    <glyph glyph-name="Scedilla" unicode="&#x15e;" horiz-adv-x="656" 
d="M16 251h163v-53q0 -81 70 -81q29 0 44 22t15 53q0 41 -32 71q-14 13 -66 44q-97 57 -132 96q-52 60 -52 152q0 104 60 159q57 54 161 54q112 0 172 -69q57 -65 51 -174h-162q-2 52 -8 69q-12 36 -50 39q-55 4 -61 -50q-6 -53 53 -92l116.5 -71.5t82.5 -76.5
q30 -52 30 -137q0 -108 -58.5 -166t-167.5 -58q-114 0 -175 57q-54 51 -54 132v80zM77 -204l21 46q73 -20 86 -20q21 0 37 10t15 27q-1 33 -40 35q-21 1 -42 -10l-26 24l56 92h58l-40 -64q16 6 39 5q38 -1 64 -20q30 -21 30 -57q0 -45 -42 -72q-37 -24 -84 -24
q-51 0 -132 28z" />
    <glyph glyph-name="scedilla" unicode="&#x15f;" horiz-adv-x="383" 
d="M423 394h-149q-5 43 -9 53q-11 24 -44 24q-53 0 -53 -47q0 -34 50 -57l100 -45q55 -28 80 -60q33 -41 33 -102q0 -89 -62 -136q-56 -42 -150 -42q-216 0 -208 189h152q-4 -84 57 -84q57 0 57 53q0 27 -21 43l-107 49q-65 31 -96 66q-40 46 -40 105q0 86 62 132
q55 41 145 41q92 0 147 -44q60 -49 56 -138zM-20 -204l21 46q73 -20 86 -20q21 0 37 10t15 27q-1 33 -40 35q-21 1 -42 -10l-26 24l56 92h58l-40 -64q16 6 39 5q38 -1 64 -20q30 -21 30 -57q0 -45 -42 -72q-37 -24 -84 -24q-51 0 -132 28z" />
    <glyph glyph-name="franc" unicode="&#x20a3;" horiz-adv-x="1035" 
d="M225 0h-176v750h414v-150h-238v-133h219v-150h-219v-317zM694 560h148v-85h2q30 101 123 101v-180q-21 4 -48 4q-35 0 -48 -9q-18 -12 -18 -46v-345h-159v560z" />
    <glyph glyph-name="u20AB" unicode="&#x20ab;" horiz-adv-x="393" 
d="M197 501q-48 0 -84 -88q-20 -49 -20 -90q0 -51 39 -51q41 0 74 71q28 60 28 107q0 51 -37 51zM200 267q-53 -62 -106 -62q-45 0 -68 28t-23 74q0 80 55 153q59 78 136 78q34 0 61 -24l20 75h-100l10 36h100l2 16q0 31 -48 32l7 33q67 2 128 14l15 3q6 0 6 -9l-3 -12
l-19 -77h65l-10 -36h-65l-69 -280q-5 -20 -5 -27q0 -15 12 -15q6 0 49 42l20 -18q-70 -86 -117 -86q-43 0 -53 62zM9 160h221v-56h-221v56z" />
    <glyph glyph-name="SF370000" unicode="&#x255f;" horiz-adv-x="718" 
d="M186 0h-177l164 750h212l163 -750h-178l-25 146h-138zM328 278l-49 336h-2l-51 -336h102z" />
    <glyph glyph-name="SF420000" unicode="&#x2560;" horiz-adv-x="681" 
d="M461 0h-415v750h403v-150h-227v-138h220v-150h-220v-162h239v-150z" />
    <glyph glyph-name="SF190000" unicode="&#x2561;" horiz-adv-x="429" 
d="M227 0h-176v750h176v-750z" />
    <glyph glyph-name="SF200000" unicode="&#x2562;" horiz-adv-x="773" 
d="M341 224v308q0 101 -62 101q-63 0 -63 -101v-308q0 -107 64 -107q61 0 61 107zM517 544v-305q0 -132 -52 -192q-56 -65 -185 -65q-130 0 -187 65q-53 61 -53 192v305q0 108 62 166t178 58q115 0 176 -58t61 -166z" />
    <glyph glyph-name="SF230000" unicode="&#x2563;" horiz-adv-x="811" 
d="M42 207v543h176v-566q0 -67 61 -67q60 0 60 72v561h176v-543q0 -225 -237 -225q-236 0 -236 225z" />
    <glyph glyph-name="SF470000" unicode="&#x2564;" horiz-adv-x="699" 
d="M189 750l88 -245h2l90 245h176l-181 -435v-315h-176v315l-177 435h178z" />
    <glyph glyph-name="SF480000" unicode="&#x2565;" horiz-adv-x="541" 
d="M301 184v88q-30 -13 -80 -41q-37 -27 -37 -72q0 -60 59 -60q58 0 58 85zM318 0l-11 50q-62 -68 -137 -68q-67 0 -106.5 41.5t-39.5 108.5q0 109 72 159q23 15 133 51q72 23 72 70q0 24 -13.5 41t-36.5 17q-39 0 -51 -26q-7 -14 -10 -61h-159q-10 193 215 193
q117 0 165.5 -39t48.5 -132v-343q0 -25 13 -62h-155z" />
    <glyph glyph-name="SF410000" unicode="&#x2566;" horiz-adv-x="431" 
d="M197 359h110v55q0 20 -12 36q-15 21 -42 21q-56 0 -56 -75v-37zM466 254h-269v-98q0 -56 49 -59q38 -2 49 30q3 10 7 67h158q12 -209 -208 -212q-94 -1 -150 38q-64 46 -64 136v228q0 190 214 192q93 1 149 -35q65 -42 65 -127v-160z" />
    <glyph glyph-name="SF450000" unicode="&#x2567;" horiz-adv-x="314" 
d="M219 0h-159v560h159v-560zM219 615h-159v135h159v-135z" />
    <glyph glyph-name="SF460000" unicode="&#x2568;" horiz-adv-x="314" 
d="M219 0h-159v560h159v-560z" />
    <glyph glyph-name="SF400000" unicode="&#x2569;" horiz-adv-x="498" 
d="M42 156v228q0 192 208 192t208 -192v-228q0 -174 -208 -174q-93 0 -147 39q-61 45 -61 135zM201 396v-250q5 -49 49 -49t49 49v250q0 65 -49 65t-49 -65z" />
    <glyph glyph-name="SF540000" unicode="&#x256a;" horiz-adv-x="557" 
d="M449 0h-148v69h-2q-12 -34 -42 -60q-33 -27 -69 -27q-142 0 -142 118v460h159v-401q0 -49 39 -47q46 2 46 47v401h159v-560z" />
    <glyph glyph-name="SF530000" unicode="&#x256b;" horiz-adv-x="497" 
d="M166 560l54 -362h2l55 362h156l-101 -479q-25 -119 -31 -138q-20 -66 -57 -96q-43 -36 -125 -36q-15 0 -35.5 2.5t-27.5 2.5v118q20 -2 31 -4q15 -3 31.5 5t16.5 23q0 13 -18 95l-111 507h160z" />
    <glyph glyph-name="circle" unicode="&#x25cb;" horiz-adv-x="718" 
d="M192 866l120 148h165l121 -148h-148l-55 75l-56 -75h-147zM365 1202h208l-171 -148h-137z" />
    <glyph glyph-name="H18533" unicode="&#x25cf;" horiz-adv-x="718" 
d="M192 866l120 148h165l121 -148h-148l-55 75l-56 -75h-147zM273 1203h208l100 -148h-137z" />
    <glyph glyph-name="invbullet" unicode="&#x25d8;" horiz-adv-x="718" 
d="M192 866l120 148h165l121 -148h-148l-55 75l-56 -75h-147zM614 903q9 29 11 64q1 11 8 13q3 0 8 1q67 11 67 54q0 35 -28 35q-5 0 -14 -1t-14 -1q-21 0 -21 18q0 28 32 28q46 0 76 -25.5t26 -70.5q-6 -59 -87 -81q-25 -7 -31 -34h-33z" />
    <glyph glyph-name="invcircle" unicode="&#x25d9;" horiz-adv-x="718" 
d="M192 866l120 148h165l121 -148h-148l-55 75l-56 -75h-147zM512 1060q-32 0 -79.5 18.5t-63.5 18.5q-36 0 -44 -43h-79q27 141 123 141q33 0 82 -19.5t64 -19.5t28 11.5t14 25.5h80q-7 -58 -36 -93q-33 -40 -89 -40z" />
    <glyph glyph-name="glyph275" horiz-adv-x="249" 
 />
    <glyph glyph-name="glyph276" horiz-adv-x="249" 
 />
    <glyph glyph-name="ch270" unicode="&#xb7;" horiz-adv-x="249" 
d="M38 348q0 34 23 57t57 23t57.5 -23t23.5 -57t-23.5 -57.5t-57.5 -23.5t-57 23.5t-23 57.5z" />
    <glyph glyph-name="ch270" unicode="&#x2219;" horiz-adv-x="249" 
d="M38 348q0 34 23 57t57 23t57.5 -23t23.5 -57t-23.5 -57.5t-57.5 -23.5t-57 23.5t-23 57.5z" />
    <glyph glyph-name="euro" horiz-adv-x="498" 
d="M522 633l-23 -156l-48 6q0 157 -94 157q-103 0 -161 -211h172l-21 -48h-164q-6 -24 -16 -73h147l-21 -47h-134q-6 -41 -6 -74q0 -56 21 -91q26 -43 78 -43q58 0 101 68q24 38 51 119l55 -10l-54 -188q-77 -53 -159 -53q-111 0 -166 84q-47 71 -47 188h-74l21 47h56
q3 25 12 73h-66l21 48h59q41 112 108 183q83 88 187 88q94 0 165 -67z" />
    <glyph glyph-name="glyph261" 
d="M253 522q9 29 11 64q1 11 8 13q3 0 8 1q67 11 67 54q0 35 -28 35q-5 0 -14 -1t-14 -1q-21 0 -21 18q0 28 32 28q46 0 76 -25.5t26 -70.5q-6 -59 -87 -81q-25 -7 -31 -34h-33z" />
    <glyph glyph-name="glyph262" horiz-adv-x="541" 
d="M-11 634l120 148h165l121 -148h-148l-55 75l-56 -75h-147zM161 971h208l-171 -148h-137z" />
    <glyph glyph-name="glyph263" horiz-adv-x="541" 
d="M-11 634l120 148h165l121 -148h-148l-55 75l-56 -75h-147zM70 971h208l100 -148h-137z" />
    <glyph glyph-name="glyph264" horiz-adv-x="541" 
d="M-11 634l120 148h165l121 -148h-148l-55 75l-56 -75h-147zM411 671q9 29 11 64q1 11 8 13q3 0 8 1q67 11 67 54q0 35 -28 35q-5 0 -14 -1t-14 -1q-21 0 -21 18q0 28 32 28q46 0 76 -25.5t26 -70.5q-6 -59 -87 -81q-25 -7 -31 -34h-33z" />
    <glyph glyph-name="glyph265" horiz-adv-x="541" 
d="M-11 634l120 148h165l121 -148h-148l-55 75l-56 -75h-147zM309 828q-32 0 -79.5 18.5t-63.5 18.5q-36 0 -44 -43h-79q27 141 123 141q33 0 82 -19.5t64 -19.5t28 11.5t14 25.5h80q-7 -58 -36 -93q-33 -40 -89 -40z" />
    <glyph glyph-name="glyph266" horiz-adv-x="541" 
d="M16 786h79q7 -62 106 -62q41 0 62 11q27 14 38 51h77q-1 -73 -56 -115q-51 -38 -126 -38q-170 0 -180 153zM240 971h208l-171 -148h-137z" />
    <glyph glyph-name="glyph267" horiz-adv-x="541" 
d="M16 786h79q7 -62 106 -62q41 0 62 11q27 14 38 51h77q-1 -73 -56 -115q-51 -38 -126 -38q-170 0 -180 153zM17 971h208l100 -148h-137z" />
    <glyph glyph-name="glyph268" horiz-adv-x="541" 
d="M16 786h79q7 -62 106 -62q41 0 62 11q27 14 38 51h77q-1 -73 -56 -115q-51 -38 -126 -38q-170 0 -180 153zM306 671q9 29 11 64q1 11 8 13q3 0 8 1q67 11 67 54q0 35 -28 35q-5 0 -14 -1t-14 -1q-21 0 -21 18q0 28 32 28q46 0 76 -25.5t26 -70.5q-6 -59 -87 -81
q-25 -7 -31 -34h-33z" />
    <glyph glyph-name="glyph269" horiz-adv-x="541" 
d="M16 786h79q7 -62 106 -62q41 0 62 11q27 14 38 51h77q-1 -73 -56 -115q-51 -38 -126 -38q-170 0 -180 153zM309 828q-32 0 -79.5 18.5t-63.5 18.5q-36 0 -44 -43h-79q27 141 123 141q33 0 82 -19.5t64 -19.5t28 11.5t14 25.5h80q-7 -58 -36 -93q-33 -40 -89 -40z" />
    <glyph glyph-name="glyph270" horiz-adv-x="249" 
 />
    <glyph glyph-name="glyph271" unicode="&#x102;" horiz-adv-x="556" 
d="M186 0h-177l164 750h212l163 -750h-178l-25 146h-138zM328 278l-49 336l-53 -336h102zM153 906h56q5 -41 74 -43q56 -1 70 43h54q0 -51 -40 -80q-35 -26 -88 -27q-126 -2 -126 107z" />
    <glyph glyph-name="glyph272" unicode="&#x103;" 
d="M301 184v88q-39 -16 -82 -42q-34 -20 -35 -71q-2 -58 59 -60q30 -1 46 29q12 23 12 56zM318 0l-11 50q-58 -67 -137 -68q-68 -1 -107 40t-39 110q0 77 33 121.5t106 68.5l95 31q42 20 43 59q1 23 -13 40t-37 18q-39 1 -52 -26q-9 -18 -9 -61h-159q0 192 215 193
q106 1 154 -31q60 -39 60 -140v-343q0 -31 13 -62h-155zM136 716h50q5 -37 67 -39q48 -1 63 39h48q0 -46 -33.5 -70.5t-81.5 -25.5q-110 -2 -113 96z" />
    <glyph glyph-name="glyph273" unicode="&#x128;" horiz-adv-x="278" 
d="M227 0h-176v750h176v-750zM189 814q-25 -1 -63 15q-15 6 -37 10q-24 0 -31 -30h-55q17 97 86 99q14 0 31 -4q6 0 25.5 -9.5t25.5 -10.5t20 -3q29 0 29 26h56q-7 -91 -87 -93z" />
    <glyph glyph-name="glyph274" unicode="&#x129;" horiz-adv-x="278" 
d="M219 0h-159v560h159v-560zM186 627q-28 0 -52 12q-13 4 -38 10q-22 0 -28 -27h-49q13 87 77 89q23 1 73 -19q7 -3 19 -5q9 0 17.5 7.5t8.5 16.5h50q-7 -84 -78 -84z" />
    <glyph glyph-name="ch903" unicode="&#x168;" horiz-adv-x="556" 
d="M42 207v543h176v-566q0 -66 61 -67q30 -1 47 24q13 19 13 48v561h176v-543q0 -224 -237 -225q-236 -1 -236 225zM332 814q-25 -1 -63 15q-15 6 -37 10q-24 0 -31 -30h-55q17 97 86 99q14 0 31 -4q6 0 25.5 -9.5t25.5 -10.5t20 -3q29 0 29 26h56q-7 -91 -87 -93z" />
    <glyph glyph-name="ch904" unicode="&#x169;" 
d="M449 0h-148v69q-14 -37 -45 -62t-68 -25q-142 -1 -142 118v460h159v-401q0 -47 39 -47q46 0 46 47v401h159v-560zM297 631q-28 0 -52 12q-13 4 -38 10q-22 0 -28 -27h-49q13 87 77 89q23 1 73 -19q7 -3 19 -5q9 0 17.5 7.5t8.5 16.5h50q-7 -84 -78 -84z" />
    <glyph glyph-name="glyph277" unicode="&#x1a0;" horiz-adv-x="556" 
d="M341 224v308q0 46 -9 67q-14 34 -53 34q-63 0 -63 -101v-308q0 -106 64 -107q61 -1 61 107zM435 727q32 4 32 40h-36v68h67v-69q0 -41 -41 -57q60 -57 60 -165v-305q0 -132 -51 -192q-56 -64 -186 -65q-129 -1 -187 65q-53 61 -53 192v305q0 222 240 224q95 1 155 -41z
" />
    <glyph glyph-name="glyph278" unicode="&#x1a1;" 
d="M201 396v-250q5 -48 49 -49q43 -1 49 49v250q0 65 -49 65t-49 -65zM380 547l10 7q6 9 9 26h-33v61h61v-62q0 -31 -26 -47q57 -48 57 -148v-228q0 -172 -208 -174q-93 -1 -147 39q-61 45 -61 135v228q0 192 208 192q81 0 130 -29z" />
    <glyph glyph-name="glyph279" unicode="&#x1af;" horiz-adv-x="556" 
d="M515 712v-505q0 -224 -237 -225q-236 -1 -236 225v543h176v-566q0 -66 61 -67q30 -1 47 24q13 19 13 48v561h174l3 17h-36v68h67v-69q0 -38 -32 -54z" />
    <glyph glyph-name="glyph280" unicode="&#x1b0;" 
d="M449 534v-534h-148v69q-14 -37 -45 -62t-68 -25q-142 -1 -142 118v460h159v-401q0 -47 39 -47q46 0 46 47v401h149q0 3 3 9q0 6 2 11h-33v61h61v-62q0 -31 -23 -45z" />
    <glyph glyph-name="glyph281" unicode="&#x1ea0;" horiz-adv-x="556" 
d="M186 0h-177l164 750h212l163 -750h-178l-25 146h-138zM328 278l-49 336l-53 -336h102zM342 -159h-118v119h118v-119z" />
    <glyph glyph-name="glyph282" unicode="&#x1ea1;" 
d="M301 184v88q-39 -16 -82 -42q-34 -20 -35 -71q-2 -58 59 -60q30 -1 46 29q12 23 12 56zM318 0l-11 50q-58 -67 -137 -68q-68 -1 -107 40t-39 110q0 77 33 121.5t106 68.5l95 31q42 20 43 59q1 23 -13 40t-37 18q-39 1 -52 -26q-9 -18 -9 -61h-159q0 192 215 193
q106 1 154 -31q60 -39 60 -140v-343q0 -31 13 -62h-155zM302 -158h-106v107h106v-107z" />
    <glyph glyph-name="glyph283" unicode="&#x1ea2;" horiz-adv-x="556" 
d="M186 0h-177l164 750h212l163 -750h-178l-25 146h-138zM328 278l-49 336l-53 -336h102zM259 916h-63q0 43 23.5 69t65.5 26q89 0 91 -76q1 -28 -26 -62l-26 -33q-7 -9 -10 -18l-2 -22h-61v26q0 16 13 34l24 30q18 24 18 41q0 25 -23 26q-14 1 -20 -12q-2 -8 -4 -29z" />
    <glyph glyph-name="glyph284" unicode="&#x1ea3;" 
d="M301 184v88q-39 -16 -82 -42q-34 -20 -35 -71q-2 -58 59 -60q30 -1 46 29q12 23 12 56zM318 0l-11 50q-58 -67 -137 -68q-68 -1 -107 40t-39 110q0 77 33 121.5t106 68.5l95 31q42 20 43 59q1 23 -13 40t-37 18q-39 1 -52 -26q-9 -18 -9 -61h-159q0 192 215 193
q106 1 154 -31q60 -39 60 -140v-343q0 -31 13 -62h-155zM231 724h-57q0 38 21 62t59 24q80 0 82 -69q1 -25 -23 -56q-12 -12 -25 -29q-7 -9 -10 -36h-54q0 39 9 50l30 40q8 15 10 28q0 23 -21 23q-11 0 -17 -10q-2 -7 -4 -27z" />
    <glyph glyph-name="glyph285" unicode="&#x1ea4;" horiz-adv-x="556" 
d="M186 0h-177l164 750h212l163 -750h-178l-25 146h-138zM328 278l-49 336l-53 -336h102zM481 948h145l-119 -104h-96zM136 790l84 103h115l85 -103h-104l-38 52l-39 -52h-103z" />
    <glyph glyph-name="glyph286" unicode="&#x1ea5;" 
d="M301 184v88q-39 -16 -82 -42q-34 -20 -35 -71q-2 -58 59 -60q30 -1 46 29q12 23 12 56zM318 0l-11 50q-58 -67 -137 -68q-68 -1 -107 40t-39 110q0 77 33 121.5t106 68.5l95 31q42 20 43 59q1 23 -13 40t-37 18q-39 1 -52 -26q-9 -18 -9 -61h-159q0 192 215 193
q106 1 154 -31q60 -39 60 -140v-343q0 -31 13 -62h-155zM432 762h130l-107 -93h-86zM121 620l76 93h104l76 -93h-94l-34 47l-35 -47h-93z" />
    <glyph glyph-name="glyph287" unicode="&#x1ea6;" horiz-adv-x="556" 
d="M186 0h-177l164 750h212l163 -750h-178l-25 146h-138zM328 278l-49 336l-53 -336h102zM-71 946h146l70 -104h-96zM136 790l84 103h115l85 -103h-104l-38 52l-39 -52h-103z" />
    <glyph glyph-name="glyph288" unicode="&#x1ea7;" 
d="M301 184v88q-39 -16 -82 -42q-34 -20 -35 -71q-2 -58 59 -60q30 -1 46 29q12 23 12 56zM318 0l-11 50q-58 -67 -137 -68q-68 -1 -107 40t-39 110q0 77 33 121.5t106 68.5l95 31q42 20 43 59q1 23 -13 40t-37 18q-39 1 -52 -26q-9 -18 -9 -61h-159q0 192 215 193
q106 1 154 -31q60 -39 60 -140v-343q0 -31 13 -62h-155zM-64 760h131l63 -93h-86zM122 620l75 93h104l76 -93h-93l-34 47l-36 -47h-92z" />
    <glyph glyph-name="glyph289" unicode="&#x1ea8;" horiz-adv-x="556" 
d="M186 0h-177l164 750h212l163 -750h-178l-25 146h-138zM328 278l-49 336l-53 -336h102zM429 948h-63q0 43 23.5 69t65.5 26q89 0 91 -76q1 -28 -26 -62l-26 -33q-7 -9 -10 -18l-2 -22h-61v26q0 16 13 34l24 30q18 24 18 41q0 25 -23 26q-14 1 -20 -12q-2 -8 -4 -29z
M136 790l84 103h115l85 -103h-104l-38 52l-39 -52h-103z" />
    <glyph glyph-name="glyph290" unicode="&#x1ea9;" 
d="M301 184v88q-39 -16 -82 -42q-34 -20 -35 -71q-2 -58 59 -60q30 -1 46 29q12 23 12 56zM318 0l-11 50q-58 -67 -137 -68q-68 -1 -107 40t-39 110q0 77 33 121.5t106 68.5l95 31q42 20 43 59q1 23 -13 40t-37 18q-39 1 -52 -26q-9 -18 -9 -61h-159q0 192 215 193
q106 1 154 -31q60 -39 60 -140v-343q0 -31 13 -62h-155zM384 762h-57q0 38 21 61.5t59 23.5q80 0 82 -68q1 -27 -23 -56l-24 -29q-6 -7 -10 -36h-55q0 32 7 45l25 37q15 21 17 35q0 24 -20 24q-11 0 -17 -8q-3 -4 -5 -29zM120 620l76 92h103l77 -92h-94l-34 47l-35 -47h-93z
" />
    <glyph glyph-name="glyph291" unicode="&#x1eaa;" horiz-adv-x="556" 
d="M186 0h-177l164 750h212l163 -750h-178l-25 146h-138zM328 278l-49 336l-53 -336h102zM328 926q-25 -1 -63 15q-15 6 -37 10q-24 0 -31 -30h-55q17 97 86 99q14 0 31 -4q6 0 25.5 -9.5t25.5 -10.5t20 -3q29 0 29 26h56q-7 -91 -87 -93zM136 790l84 103h115l85 -103h-104
l-38 52l-39 -52h-103z" />
    <glyph glyph-name="glyph292" unicode="&#x1eab;" 
d="M301 184v88q-39 -16 -82 -42q-34 -20 -35 -71q-2 -58 59 -60q30 -1 46 29q12 23 12 56zM318 0l-11 50q-58 -67 -137 -68q-68 -1 -107 40t-39 110q0 77 33 121.5t106 68.5l95 31q42 20 43 59q1 23 -13 40t-37 18q-39 1 -52 -26q-9 -18 -9 -61h-159q0 192 215 193
q106 1 154 -31q60 -39 60 -140v-343q0 -31 13 -62h-155zM294 743q-25 -1 -76 20q-4 1 -14 2q-20 0 -28 -27h-49q13 87 77 89q22 1 58 -15q21 -9 34 -9q9 0 17.5 7t8.5 16h50q-7 -81 -78 -83zM121 620l76 93h103l77 -93h-94l-34 47l-35 -47h-93z" />
    <glyph glyph-name="glyph293" unicode="&#x1eac;" horiz-adv-x="556" 
d="M186 0h-177l164 750h212l163 -750h-178l-25 146h-138zM328 278l-49 336l-53 -336h102zM342 -159h-118v119h118v-119zM136 790l84 103h115l85 -103h-104l-38 52l-39 -52h-103z" />
    <glyph glyph-name="glyph294" unicode="&#x1ead;" 
d="M301 184v88q-39 -16 -82 -42q-34 -20 -35 -71q-2 -58 59 -60q30 -1 46 29q12 23 12 56zM318 0l-11 50q-58 -67 -137 -68q-68 -1 -107 40t-39 110q0 77 33 121.5t106 68.5l95 31q42 20 43 59q1 23 -13 40t-37 18q-39 1 -52 -26q-9 -18 -9 -61h-159q0 192 215 193
q106 1 154 -31q60 -39 60 -140v-343q0 -31 13 -62h-155zM302 -158h-106v107h106v-107zM121 620l76 93h104l76 -93h-94l-34 47l-35 -47h-93z" />
    <glyph glyph-name="glyph295" unicode="&#x1eae;" horiz-adv-x="556" 
d="M186 0h-177l164 750h212l163 -750h-178l-25 146h-138zM328 278l-49 336l-53 -336h102zM303 1020h145l-119 -104h-96zM153 906h56q5 -41 74 -43q56 -1 70 43h54q0 -51 -40 -80q-35 -26 -88 -27q-126 -2 -126 107z" />
    <glyph glyph-name="glyph296" unicode="&#x1eaf;" 
d="M301 184v88q-39 -16 -82 -42q-34 -20 -35 -71q-2 -58 59 -60q30 -1 46 29q12 23 12 56zM318 0l-11 50q-58 -67 -137 -68q-68 -1 -107 40t-39 110q0 77 33 121.5t106 68.5l95 31q42 20 43 59q1 23 -13 40t-37 18q-39 1 -52 -26q-9 -18 -9 -61h-159q0 192 215 193
q106 1 154 -31q60 -39 60 -140v-343q0 -31 13 -62h-155zM271 818h130l-107 -93h-86zM136 716h50q5 -37 67 -39q48 -1 63 39h48q0 -46 -33.5 -70.5t-81.5 -25.5q-110 -2 -113 96z" />
    <glyph glyph-name="glyph297" unicode="&#x1eb0;" horiz-adv-x="556" 
d="M186 0h-177l164 750h212l163 -750h-178l-25 146h-138zM328 278l-49 336l-53 -336h102zM114 1020h146l70 -104h-96zM153 906h56q5 -41 74 -43q56 -1 70 43h54q0 -51 -40 -80q-35 -26 -88 -27q-126 -2 -126 107z" />
    <glyph glyph-name="glyph298" unicode="&#x1eb1;" 
d="M301 184v88q-39 -16 -82 -42q-34 -20 -35 -71q-2 -58 59 -60q30 -1 46 29q12 23 12 56zM318 0l-11 50q-58 -67 -137 -68q-68 -1 -107 40t-39 110q0 77 33 121.5t106 68.5l95 31q42 20 43 59q1 23 -13 40t-37 18q-39 1 -52 -26q-9 -18 -9 -61h-159q0 192 215 193
q106 1 154 -31q60 -39 60 -140v-343q0 -31 13 -62h-155zM97 818h131l63 -93h-86zM132 716h50q5 -37 67 -39q48 -1 63 39h48q0 -46 -33.5 -70.5t-81.5 -25.5q-113 -2 -113 96z" />
    <glyph glyph-name="glyph299" unicode="&#x1eb2;" horiz-adv-x="556" 
d="M186 0h-177l164 750h212l163 -750h-178l-25 146h-138zM328 278l-49 336l-53 -336h102zM259 1033h-63q0 43 23.5 69t65.5 26q89 0 91 -76q1 -28 -26 -62l-26 -33q-7 -9 -10 -18l-2 -22h-61v26q0 16 13 34l24 30q18 24 18 41q0 25 -23 26q-14 1 -20 -12q-2 -8 -4 -29z
M153 906h56q5 -41 74 -43q56 -1 70 43h54q0 -51 -40 -80q-35 -26 -88 -27q-126 -2 -126 107z" />
    <glyph glyph-name="glyph300" unicode="&#x1eb3;" 
d="M301 184v88q-39 -16 -82 -42q-34 -20 -35 -71q-2 -58 59 -60q30 -1 46 29q12 23 12 56zM318 0l-11 50q-58 -67 -137 -68q-68 -1 -107 40t-39 110q0 77 33 121.5t106 68.5l95 31q42 20 43 59q1 23 -13 40t-37 18q-39 1 -52 -26q-9 -18 -9 -61h-159q0 192 215 193
q106 1 154 -31q60 -39 60 -140v-343q0 -31 13 -62h-155zM230 830h-57q0 38 21 62t59 24q80 0 82 -69q1 -25 -23 -56q-12 -12 -25 -29q-7 -9 -10 -36h-54q0 39 9 50l30 40q8 15 10 28q0 23 -21 23q-11 0 -17 -10q-2 -7 -4 -27zM134 716h51q1 -20 24 -32q17 -6 42 -7
q51 -1 63 39h49q0 -46 -33.5 -70.5t-81.5 -25.5q-114 -2 -114 96z" />
    <glyph glyph-name="glyph301" unicode="&#x1eb4;" horiz-adv-x="556" 
d="M186 0h-177l164 750h212l163 -750h-178l-25 146h-138zM328 278l-49 336l-53 -336h102zM439 932q-25 -1 -63 15q-15 6 -37 10q-24 0 -31 -30h-55q17 97 86 99q14 0 31 -4q6 0 25.5 -9.5t25.5 -10.5t20 -3q29 0 29 26h56q-7 -91 -87 -93zM153 906h56q5 -41 74 -43
q56 -1 70 43h54q0 -51 -40 -80q-35 -26 -88 -27q-126 -2 -126 107z" />
    <glyph glyph-name="glyph302" unicode="&#x1eb5;" 
d="M301 184v88q-39 -16 -82 -42q-34 -20 -35 -71q-2 -58 59 -60q30 -1 46 29q12 23 12 56zM318 0l-11 50q-58 -67 -137 -68q-68 -1 -107 40t-39 110q0 77 33 121.5t106 68.5l95 31q42 20 43 59q1 23 -13 40t-37 18q-39 1 -52 -26q-9 -18 -9 -61h-159q0 192 215 193
q106 1 154 -31q60 -39 60 -140v-343q0 -31 13 -62h-155zM390 740q-28 0 -52 12q-13 4 -38 10q-22 0 -28 -27h-49q13 87 77 89q23 1 73 -19q7 -3 19 -5q9 0 17.5 7.5t8.5 16.5h50q-7 -84 -78 -84zM133 717h50q5 -37 67 -39q49 -1 62 39h49q0 -47 -35 -73q-31 -23 -80 -24
q-110 -2 -113 97z" />
    <glyph glyph-name="glyph303" unicode="&#x1eb6;" horiz-adv-x="556" 
d="M186 0h-177l164 750h212l163 -750h-178l-25 146h-138zM328 278l-49 336l-53 -336h102zM342 -159h-118v119h118v-119zM153 906h56q5 -41 74 -43q56 -1 70 43h54q0 -51 -40 -80q-35 -26 -88 -27q-126 -2 -126 107z" />
    <glyph glyph-name="glyph304" unicode="&#x1eb7;" 
d="M301 184v88q-39 -16 -82 -42q-34 -20 -35 -71q-2 -58 59 -60q30 -1 46 29q12 23 12 56zM318 0l-11 50q-58 -67 -137 -68q-68 -1 -107 40t-39 110q0 77 33 121.5t106 68.5l95 31q42 20 43 59q1 23 -13 40t-37 18q-39 1 -52 -26q-9 -18 -9 -61h-159q0 192 215 193
q106 1 154 -31q60 -39 60 -140v-343q0 -31 13 -62h-155zM136 716h50q5 -37 67 -39q48 -1 63 39h48q0 -46 -33.5 -70.5t-81.5 -25.5q-110 -2 -113 96zM302 -158h-106v107h106v-107z" />
    <glyph glyph-name="glyph305" unicode="&#x1eb8;" 
d="M461 0h-415v750h403v-150h-227v-138h220v-150h-220v-162h239v-150zM307 -168h-118v119h118v-119z" />
    <glyph glyph-name="glyph306" unicode="&#x1eb9;" 
d="M197 359h110v55q0 25 -15 41t-39 16q-56 0 -56 -75v-37zM466 254h-269v-98q0 -58 49 -59q38 -1 50 31q6 16 6 66h158q0 -212 -208 -212q-94 0 -150 39q-64 45 -64 135v228q0 192 214 192t214 -162v-160zM302 -158h-106v107h106v-107z" />
    <glyph glyph-name="glyph307" unicode="&#x1eba;" 
d="M461 0h-415v750h403v-150h-227v-138h220v-150h-220v-162h239v-150zM225 918h-63q0 43 23.5 69t65.5 26q89 0 91 -76q1 -28 -26 -62l-26 -33q-7 -9 -10 -18l-2 -22h-61v26q0 16 13 34l24 30q18 24 18 41q0 25 -23 26q-14 1 -20 -12q-2 -8 -4 -29z" />
    <glyph glyph-name="glyph308" unicode="&#x1ebb;" 
d="M197 359h110v55q0 25 -15 41t-39 16q-56 0 -56 -75v-37zM466 254h-269v-98q0 -58 49 -59q38 -1 50 31q6 16 6 66h158q0 -212 -208 -212q-94 0 -150 39q-64 45 -64 135v228q0 192 214 192t214 -162v-160zM231 724h-57q0 38 21 62t59 24q80 0 82 -69q1 -25 -23 -56
q-12 -12 -25 -29q-7 -9 -10 -36h-54q0 39 9 50l30 40q8 15 10 28q0 23 -21 23q-11 0 -17 -10q-2 -7 -4 -27z" />
    <glyph glyph-name="glyph309" unicode="&#x1ebc;" 
d="M461 0h-415v750h403v-150h-227v-138h220v-150h-220v-162h239v-150zM297 814q-25 -1 -63 15q-15 6 -37 10q-24 0 -31 -30h-55q17 97 86 99q14 0 31 -4q6 0 25.5 -9.5t25.5 -10.5t20 -3q29 0 29 26h56q-7 -91 -87 -93z" />
    <glyph glyph-name="glyph310" unicode="&#x1ebd;" 
d="M197 359h110v55q0 25 -15 41t-39 16q-56 0 -56 -75v-37zM466 254h-269v-98q0 -58 49 -59q38 -1 50 31q6 16 6 66h158q0 -212 -208 -212q-94 0 -150 39q-64 45 -64 135v228q0 192 214 192t214 -162v-160zM297 636q-28 0 -52 12q-13 4 -38 10q-22 0 -28 -27h-49
q13 87 77 89q23 1 73 -19q7 -3 19 -5q9 0 17.5 7.5t8.5 16.5h50q-7 -84 -78 -84z" />
    <glyph glyph-name="glyph311" unicode="&#x1ebe;" 
d="M461 0h-415v750h403v-150h-227v-138h220v-150h-220v-162h239v-150zM448 960h145l-119 -104h-96zM103 802l84 103h115l85 -103h-104l-38 52l-39 -52h-103z" />
    <glyph glyph-name="glyph312" unicode="&#x1ebf;" 
d="M197 359h110v55q0 25 -15 41t-39 16q-56 0 -56 -75v-37zM466 254h-269v-98q0 -58 49 -59q38 -1 50 31q6 16 6 66h158q0 -212 -208 -212q-94 0 -150 39q-64 45 -64 135v228q0 192 214 192t214 -162v-160zM432 762h130l-107 -93h-86zM121 620l76 93h104l76 -93h-94l-34 47
l-35 -47h-93z" />
    <glyph glyph-name="glyph313" unicode="&#x1ec0;" 
d="M461 0h-415v750h403v-150h-227v-138h220v-150h-220v-162h239v-150zM-103 958h146l70 -104h-96zM104 802l84 103h115l85 -103h-104l-38 52l-39 -52h-103z" />
    <glyph glyph-name="glyph314" unicode="&#x1ec1;" 
d="M197 359h110v55q0 25 -15 41t-39 16q-56 0 -56 -75v-37zM466 254h-269v-98q0 -58 49 -59q38 -1 50 31q6 16 6 66h158q0 -212 -208 -212q-94 0 -150 39q-64 45 -64 135v228q0 192 214 192t214 -162v-160zM-64 760h131l63 -93h-86zM122 620l75 93h104l76 -93h-93l-34 47
l-36 -47h-92z" />
    <glyph glyph-name="glyph315" unicode="&#x1ec2;" 
d="M461 0h-415v750h403v-150h-227v-138h220v-150h-220v-162h239v-150zM398 960h-63q0 43 23.5 69t65.5 26q89 0 91 -76q1 -28 -26 -62l-26 -33q-7 -9 -10 -18l-2 -22h-61v26q0 16 13 34l24 30q18 24 18 41q0 25 -23 26q-14 1 -20 -12q-2 -8 -4 -29zM105 802l84 103h115
l85 -103h-104l-38 52l-39 -52h-103z" />
    <glyph glyph-name="glyph316" unicode="&#x1ec3;" 
d="M197 359h110v55q0 25 -15 41t-39 16q-56 0 -56 -75v-37zM466 254h-269v-98q0 -58 49 -59q38 -1 50 31q6 16 6 66h158q0 -212 -208 -212q-94 0 -150 39q-64 45 -64 135v228q0 192 214 192t214 -162v-160zM384 762h-57q0 38 21 61.5t59 23.5q80 0 82 -68q1 -27 -23 -56
l-24 -29q-6 -7 -10 -36h-55q0 32 7 45l25 37q15 21 17 35q0 24 -20 24q-11 0 -17 -8q-3 -4 -5 -29zM120 620l76 92h103l77 -92h-94l-34 47l-35 -47h-93z" />
    <glyph glyph-name="glyph317" unicode="&#x1ec4;" 
d="M461 0h-415v750h403v-150h-227v-138h220v-150h-220v-162h239v-150zM297 938q-25 -1 -63 15q-15 6 -37 10q-24 0 -31 -30h-55q17 97 86 99q14 0 31 -4q6 0 25.5 -9.5t25.5 -10.5t20 -3q29 0 29 26h56q-7 -91 -87 -93zM105 802l84 103h115l85 -103h-104l-38 52l-39 -52
h-103z" />
    <glyph glyph-name="glyph318" unicode="&#x1ec5;" 
d="M197 359h110v55q0 25 -15 41t-39 16q-56 0 -56 -75v-37zM466 254h-269v-98q0 -58 49 -59q38 -1 50 31q6 16 6 66h158q0 -212 -208 -212q-94 0 -150 39q-64 45 -64 135v228q0 192 214 192t214 -162v-160zM294 743q-25 -1 -76 20q-4 1 -14 2q-20 0 -28 -27h-49q13 87 77 89
q22 1 58 -15q21 -9 34 -9q9 0 17.5 7t8.5 16h50q-7 -81 -78 -83zM121 620l76 93h103l77 -93h-94l-34 47l-35 -47h-93z" />
    <glyph glyph-name="glyph319" unicode="&#x1ec6;" 
d="M461 0h-415v750h403v-150h-227v-138h220v-150h-220v-162h239v-150zM103 802l84 103h115l85 -103h-104l-38 52l-39 -52h-103zM307 -168h-118v119h118v-119z" />
    <glyph glyph-name="glyph320" unicode="&#x1ec7;" 
d="M197 359h110v55q0 25 -15 41t-39 16q-56 0 -56 -75v-37zM466 254h-269v-98q0 -58 49 -59q38 -1 50 31q6 16 6 66h158q0 -212 -208 -212q-94 0 -150 39q-64 45 -64 135v228q0 192 214 192t214 -162v-160zM302 -158h-106v107h106v-107zM121 620l76 93h103l77 -93h-94
l-34 47l-35 -47h-93z" />
    <glyph glyph-name="glyph321" unicode="&#x1ec8;" horiz-adv-x="278" 
d="M227 0h-176v750h176v-750zM117 918h-63q0 43 23.5 69t65.5 26q89 0 91 -76q1 -28 -26 -62l-26 -33q-7 -9 -10 -18l-2 -22h-61v26q0 16 13 34l24 30q18 24 18 41q0 25 -23 26q-14 1 -20 -12q-2 -8 -4 -29z" />
    <glyph glyph-name="glyph322" unicode="&#x1ec9;" horiz-adv-x="278" 
d="M219 0h-159v560h159v-560zM120 724h-57q0 38 21 62t59 24q80 0 82 -69q1 -25 -23 -56q-12 -12 -25 -29q-7 -9 -10 -36h-54q0 39 9 50l30 40q8 15 10 28q0 23 -21 23q-11 0 -17 -10q-2 -7 -4 -27z" />
    <glyph glyph-name="glyph323" unicode="&#x1eca;" horiz-adv-x="278" 
d="M227 0h-176v750h176v-750zM195 -169h-118v119h118v-119z" />
    <glyph glyph-name="glyph324" unicode="&#x1ecb;" horiz-adv-x="278" 
d="M219 0h-159v560h159v-560zM197 619h-106v107h106v-107zM189 -158h-106v107h106v-107z" />
    <glyph glyph-name="glyph325" unicode="&#x1ecc;" horiz-adv-x="556" 
d="M341 224v308q0 46 -9 67q-14 34 -53 34q-63 0 -63 -101v-308q0 -106 64 -107q61 -1 61 107zM517 544v-305q0 -132 -51 -192q-56 -64 -186 -65q-129 -1 -187 65q-53 61 -53 192v305q0 222 240 224q112 1 174.5 -56t62.5 -168zM342 -180h-118v119h118v-119z" />
    <glyph glyph-name="glyph326" unicode="&#x1ecd;" 
d="M42 156v228q0 192 208 192t208 -192v-228q0 -172 -208 -174q-93 -1 -147 39q-61 45 -61 135zM201 396v-250q5 -48 49 -49q43 -1 49 49v250q0 65 -49 65t-49 -65zM302 -158h-106v107h106v-107z" />
    <glyph glyph-name="glyph327" unicode="&#x1ece;" horiz-adv-x="556" 
d="M341 224v308q0 46 -9 67q-14 34 -53 34q-63 0 -63 -101v-308q0 -106 64 -107q61 -1 61 107zM517 544v-305q0 -132 -51 -192q-56 -64 -186 -65q-129 -1 -187 65q-53 61 -53 192v305q0 222 240 224q112 1 174.5 -56t62.5 -168zM258 928h-63q0 43 23.5 69t65.5 26
q89 0 91 -76q1 -28 -26 -62l-26 -33q-7 -9 -10 -18l-2 -22h-61v26q0 16 13 34l24 30q18 24 18 41q0 25 -23 26q-14 1 -20 -12q-2 -8 -4 -29z" />
    <glyph glyph-name="glyph328" unicode="&#x1ecf;" 
d="M42 156v228q0 192 208 192t208 -192v-228q0 -172 -208 -174q-93 -1 -147 39q-61 45 -61 135zM201 396v-250q5 -48 49 -49q43 -1 49 49v250q0 65 -49 65t-49 -65zM231 724h-57q0 38 21 62t59 24q80 0 82 -69q1 -25 -23 -56q-12 -12 -25 -29q-7 -9 -10 -36h-54q0 39 9 50
l30 40q8 15 10 28q0 23 -21 23q-11 0 -17 -10q-2 -7 -4 -27z" />
    <glyph glyph-name="glyph329" unicode="&#x1ed0;" horiz-adv-x="556" 
d="M341 224v308q0 46 -9 67q-14 34 -53 34q-63 0 -63 -101v-308q0 -106 64 -107q61 -1 61 107zM517 544v-305q0 -132 -51 -192q-56 -64 -186 -65q-129 -1 -187 65q-53 61 -53 192v305q0 222 240 224q112 1 174.5 -56t62.5 -168zM482 970h145l-119 -104h-96zM137 812l84 103
h115l85 -103h-104l-38 52l-39 -52h-103z" />
    <glyph glyph-name="glyph330" unicode="&#x1ed1;" 
d="M42 156v228q0 192 208 192t208 -192v-228q0 -172 -208 -174q-93 -1 -147 39q-61 45 -61 135zM201 396v-250q5 -48 49 -49q43 -1 49 49v250q0 65 -49 65t-49 -65zM432 762h130l-107 -93h-86zM121 620l76 93h104l76 -93h-94l-34 47l-35 -47h-93z" />
    <glyph glyph-name="glyph331" unicode="&#x1ed2;" horiz-adv-x="556" 
d="M341 224v308q0 46 -9 67q-14 34 -53 34q-63 0 -63 -101v-308q0 -106 64 -107q61 -1 61 107zM517 544v-305q0 -132 -51 -192q-56 -64 -186 -65q-129 -1 -187 65q-53 61 -53 192v305q0 222 240 224q112 1 174.5 -56t62.5 -168zM-72 968h146l70 -104h-96zM135 812l84 103
h115l85 -103h-104l-38 52l-39 -52h-103z" />
    <glyph glyph-name="glyph332" unicode="&#x1ed3;" 
d="M42 156v228q0 192 208 192t208 -192v-228q0 -172 -208 -174q-93 -1 -147 39q-61 45 -61 135zM201 396v-250q5 -48 49 -49q43 -1 49 49v250q0 65 -49 65t-49 -65zM-64 760h131l63 -93h-86zM122 620l75 93h104l76 -93h-93l-34 47l-36 -47h-92z" />
    <glyph glyph-name="glyph333" unicode="&#x1ed4;" horiz-adv-x="556" 
d="M341 224v308q0 46 -9 67q-14 34 -53 34q-63 0 -63 -101v-308q0 -106 64 -107q61 -1 61 107zM517 544v-305q0 -132 -51 -192q-56 -64 -186 -65q-129 -1 -187 65q-53 61 -53 192v305q0 222 240 224q112 1 174.5 -56t62.5 -168zM429 970h-63q0 43 23.5 69t65.5 26
q89 0 91 -76q1 -28 -26 -62l-26 -33q-7 -9 -10 -18l-2 -22h-61v26q0 16 13 34l24 30q18 24 18 41q0 25 -23 26q-14 1 -20 -12q-2 -8 -4 -29zM136 812l84 103h115l85 -103h-104l-38 52l-39 -52h-103z" />
    <glyph glyph-name="glyph334" unicode="&#x1ed5;" 
d="M42 156v228q0 192 208 192t208 -192v-228q0 -172 -208 -174q-93 -1 -147 39q-61 45 -61 135zM201 396v-250q5 -48 49 -49q43 -1 49 49v250q0 65 -49 65t-49 -65zM384 762h-57q0 38 21 61.5t59 23.5q80 0 82 -68q1 -27 -23 -56l-24 -29q-6 -7 -10 -36h-55q0 32 7 45l25 37
q15 21 17 35q0 24 -20 24q-11 0 -17 -8q-3 -4 -5 -29zM120 620l76 92h103l77 -92h-94l-34 47l-35 -47h-93z" />
    <glyph glyph-name="glyph335" unicode="&#x1ed6;" horiz-adv-x="556" 
d="M341 224v308q0 46 -9 67q-14 34 -53 34q-63 0 -63 -101v-308q0 -106 64 -107q61 -1 61 107zM517 544v-305q0 -132 -51 -192q-56 -64 -186 -65q-129 -1 -187 65q-53 61 -53 192v305q0 222 240 224q112 1 174.5 -56t62.5 -168zM328 948q-25 -1 -63 15q-15 6 -37 10
q-24 0 -31 -30h-55q17 97 86 99q14 0 31 -4q6 0 25.5 -9.5t25.5 -10.5t20 -3q29 0 29 26h56q-7 -91 -87 -93zM136 812l84 103h115l85 -103h-104l-38 52l-39 -52h-103z" />
    <glyph glyph-name="glyph336" unicode="&#x1ed7;" 
d="M42 156v228q0 192 208 192t208 -192v-228q0 -172 -208 -174q-93 -1 -147 39q-61 45 -61 135zM201 396v-250q5 -48 49 -49q43 -1 49 49v250q0 65 -49 65t-49 -65zM294 743q-25 -1 -76 20q-4 1 -14 2q-20 0 -28 -27h-49q13 87 77 89q22 1 58 -15q21 -9 34 -9q9 0 17.5 7
t8.5 16h50q-7 -81 -78 -83zM121 620l76 93h103l77 -93h-94l-34 47l-35 -47h-93z" />
    <glyph glyph-name="glyph337" unicode="&#x1ed8;" horiz-adv-x="556" 
d="M341 224v308q0 46 -9 67q-14 34 -53 34q-63 0 -63 -101v-308q0 -106 64 -107q61 -1 61 107zM517 544v-305q0 -132 -51 -192q-56 -64 -186 -65q-129 -1 -187 65q-53 61 -53 192v305q0 222 240 224q112 1 174.5 -56t62.5 -168zM137 812l84 103h115l85 -103h-104l-38 52
l-39 -52h-103zM342 -180h-118v119h118v-119z" />
    <glyph glyph-name="glyph338" unicode="&#x1ed9;" 
d="M42 156v228q0 192 208 192t208 -192v-228q0 -172 -208 -174q-93 -1 -147 39q-61 45 -61 135zM201 396v-250q5 -48 49 -49q43 -1 49 49v250q0 65 -49 65t-49 -65zM121 620l76 93h104l76 -93h-94l-34 47l-35 -47h-93zM302 -158h-106v107h106v-107z" />
    <glyph glyph-name="glyph339" unicode="&#x1eda;" horiz-adv-x="556" 
d="M341 224v308q0 46 -9 67q-14 34 -53 34q-63 0 -63 -101v-308q0 -106 64 -107q61 -1 61 107zM435 727q32 4 32 40h-36v68h67v-69q0 -41 -41 -57q60 -57 60 -165v-305q0 -132 -51 -192q-56 -64 -186 -65q-129 -1 -187 65q-53 61 -53 192v305q0 222 240 224q95 1 155 -41z
M302 930h145l-119 -104h-96z" />
    <glyph glyph-name="glyph340" unicode="&#x1edb;" 
d="M201 396v-250q5 -48 49 -49q43 -1 49 49v250q0 65 -49 65t-49 -65zM380 547l10 7q6 9 9 26h-33v61h61v-62q0 -31 -26 -47q57 -48 57 -148v-228q0 -172 -208 -174q-93 -1 -147 39q-61 45 -61 135v228q0 192 208 192q81 0 130 -29zM271 729h130l-107 -93h-86z" />
    <glyph glyph-name="glyph341" unicode="&#x1edc;" horiz-adv-x="556" 
d="M341 224v308q0 46 -9 67q-14 34 -53 34q-63 0 -63 -101v-308q0 -106 64 -107q61 -1 61 107zM435 727q32 4 32 40h-36v68h67v-69q0 -41 -41 -57q60 -57 60 -165v-305q0 -132 -51 -192q-56 -64 -186 -65q-129 -1 -187 65q-53 61 -53 192v305q0 222 240 224q95 1 155 -41z
M112 930h146l70 -104h-96z" />
    <glyph glyph-name="glyph342" unicode="&#x1edd;" 
d="M201 396v-250q5 -48 49 -49q43 -1 49 49v250q0 65 -49 65t-49 -65zM380 547l10 7q6 9 9 26h-33v61h61v-62q0 -31 -26 -47q57 -48 57 -148v-228q0 -172 -208 -174q-93 -1 -147 39q-61 45 -61 135v228q0 192 208 192q81 0 130 -29zM99 730h131l63 -94h-86z" />
    <glyph glyph-name="glyph343" unicode="&#x1ede;" horiz-adv-x="556" 
d="M341 224v308q0 46 -9 67q-14 34 -53 34q-63 0 -63 -101v-308q0 -106 64 -107q61 -1 61 107zM435 727q32 4 32 40h-36v68h67v-69q0 -41 -41 -57q60 -57 60 -165v-305q0 -132 -51 -192q-56 -64 -186 -65q-129 -1 -187 65q-53 61 -53 192v305q0 222 240 224q95 1 155 -41z
M258 933h-63q0 43 23.5 69t65.5 26q89 0 91 -76q1 -28 -26 -62l-26 -33q-7 -9 -10 -18l-2 -22h-61v26q0 16 13 34l24 30q18 24 18 41q0 25 -23 26q-14 1 -20 -12q-2 -8 -4 -29z" />
    <glyph glyph-name="glyph344" unicode="&#x1edf;" 
d="M201 396v-250q5 -48 49 -49q43 -1 49 49v250q0 65 -49 65t-49 -65zM380 547l10 7q6 9 9 26h-33v61h61v-62q0 -31 -26 -47q57 -48 57 -148v-228q0 -172 -208 -174q-93 -1 -147 39q-61 45 -61 135v228q0 192 208 192q81 0 130 -29zM231 729h-57q0 38 21 62t59 24
q80 0 82 -69q1 -25 -23 -56q-12 -12 -25 -29q-7 -9 -10 -36h-54q0 39 9 50l30 40q8 15 10 28q0 23 -21 23q-11 0 -17 -10q-2 -7 -4 -27z" />
    <glyph glyph-name="glyph345" unicode="&#x1ee0;" horiz-adv-x="556" 
d="M341 224v308q0 46 -9 67q-14 34 -53 34q-63 0 -63 -101v-308q0 -106 64 -107q61 -1 61 107zM435 727q32 4 32 40h-36v68h67v-69q0 -41 -41 -57q60 -57 60 -165v-305q0 -132 -51 -192q-56 -64 -186 -65q-129 -1 -187 65q-53 61 -53 192v305q0 222 240 224q95 1 155 -41z
M334 829q-25 -1 -63 15q-15 6 -37 10q-24 0 -31 -30h-55q17 97 86 99q14 0 31 -4q6 0 25.5 -9.5t25.5 -10.5t20 -3q29 0 29 26h56q-7 -91 -87 -93z" />
    <glyph glyph-name="glyph346" unicode="&#x1ee1;" 
d="M201 396v-250q5 -48 49 -49q43 -1 49 49v250q0 65 -49 65t-49 -65zM380 547l10 7q6 9 9 26h-33v61h61v-62q0 -31 -26 -47q57 -48 57 -148v-228q0 -172 -208 -174q-93 -1 -147 39q-61 45 -61 135v228q0 192 208 192q81 0 130 -29zM297 641q-28 0 -52 12q-13 4 -38 10
q-22 0 -28 -27h-49q13 87 77 89q23 1 73 -19q7 -3 19 -5q9 0 17.5 7.5t8.5 16.5h50q-7 -84 -78 -84z" />
    <glyph glyph-name="glyph347" unicode="&#x1ee2;" horiz-adv-x="556" 
d="M341 224v308q0 46 -9 67q-14 34 -53 34q-63 0 -63 -101v-308q0 -106 64 -107q61 -1 61 107zM435 727q32 4 32 40h-36v68h67v-69q0 -41 -41 -57q60 -57 60 -165v-305q0 -132 -51 -192q-56 -64 -186 -65q-129 -1 -187 65q-53 61 -53 192v305q0 222 240 224q95 1 155 -41z
M342 -180h-118v119h118v-119z" />
    <glyph glyph-name="glyph348" unicode="&#x1ee3;" 
d="M201 396v-250q5 -48 49 -49q43 -1 49 49v250q0 65 -49 65t-49 -65zM380 547l10 7q6 9 9 26h-33v61h61v-62q0 -31 -26 -47q57 -48 57 -148v-228q0 -172 -208 -174q-93 -1 -147 39q-61 45 -61 135v228q0 192 208 192q81 0 130 -29zM302 -158h-106v107h106v-107z" />
    <glyph glyph-name="glyph349" unicode="&#x1ee4;" horiz-adv-x="556" 
d="M42 207v543h176v-566q0 -66 61 -67q30 -1 47 24q13 19 13 48v561h176v-543q0 -224 -237 -225q-236 -1 -236 225zM342 -180h-118v119h118v-119z" />
    <glyph glyph-name="glyph350" unicode="&#x1ee5;" 
d="M449 0h-148v69q-14 -37 -45 -62t-68 -25q-142 -1 -142 118v460h159v-401q0 -47 39 -47q46 0 46 47v401h159v-560zM302 -158h-106v107h106v-107z" />
    <glyph glyph-name="glyph351" unicode="&#x1ee6;" horiz-adv-x="556" 
d="M42 207v543h176v-566q0 -66 61 -67q30 -1 47 24q13 19 13 48v561h176v-543q0 -224 -237 -225q-236 -1 -236 225zM258 918h-63q0 43 23.5 69t65.5 26q89 0 91 -76q1 -28 -26 -62l-26 -33q-7 -9 -10 -18l-2 -22h-61v26q0 16 13 34l24 30q18 24 18 41q0 25 -23 26
q-14 1 -20 -12q-2 -8 -4 -29z" />
    <glyph glyph-name="glyph352" unicode="&#x1ee7;" 
d="M449 0h-148v69q-14 -37 -45 -62t-68 -25q-142 -1 -142 118v460h159v-401q0 -47 39 -47q46 0 46 47v401h159v-560zM231 714h-57q0 38 21 62t59 24q80 0 82 -69q1 -25 -23 -56q-12 -12 -25 -29q-7 -9 -10 -36h-54q0 39 9 50l30 40q8 15 10 28q0 23 -21 23q-11 0 -17 -10
q-2 -7 -4 -27z" />
    <glyph glyph-name="glyph353" unicode="&#x1ee8;" horiz-adv-x="556" 
d="M515 712v-505q0 -224 -237 -225q-236 -1 -236 225v543h176v-566q0 -66 61 -67q30 -1 47 24q13 19 13 48v561h174l3 17h-36v68h67v-69q0 -38 -32 -54zM305 920h145l-119 -104h-96z" />
    <glyph glyph-name="glyph354" unicode="&#x1ee9;" 
d="M449 534v-534h-148v69q-14 -37 -45 -62t-68 -25q-142 -1 -142 118v460h159v-401q0 -47 39 -47q46 0 46 47v401h149q0 3 3 9q0 6 2 11h-33v61h61v-62q0 -31 -23 -45zM271 724h130l-107 -93h-86z" />
    <glyph glyph-name="glyph355" unicode="&#x1eea;" horiz-adv-x="556" 
d="M515 712v-505q0 -224 -237 -225q-236 -1 -236 225v543h176v-566q0 -66 61 -67q30 -1 47 24q13 19 13 48v561h174l3 17h-36v68h67v-69q0 -38 -32 -54zM110 920h146l70 -104h-96z" />
    <glyph glyph-name="glyph356" unicode="&#x1eeb;" 
d="M449 534v-534h-148v69q-14 -37 -45 -62t-68 -25q-142 -1 -142 118v460h159v-401q0 -47 39 -47q46 0 46 47v401h149q0 3 3 9q0 6 2 11h-33v61h61v-62q0 -31 -23 -45zM99 730h131l63 -94h-86z" />
    <glyph glyph-name="glyph357" unicode="&#x1eec;" horiz-adv-x="556" 
d="M515 712v-505q0 -224 -237 -225q-236 -1 -236 225v543h176v-566q0 -66 61 -67q30 -1 47 24q13 19 13 48v561h174l3 17h-36v68h67v-69q0 -38 -32 -54zM258 923h-63q0 43 23.5 69t65.5 26q89 0 91 -76q1 -28 -26 -62l-26 -33q-7 -9 -10 -18l-2 -22h-61v26q0 16 13 34l24 30
q18 24 18 41q0 25 -23 26q-14 1 -20 -12q-2 -8 -4 -29z" />
    <glyph glyph-name="glyph358" unicode="&#x1eed;" 
d="M449 534v-534h-148v69q-14 -37 -45 -62t-68 -25q-142 -1 -142 118v460h159v-401q0 -47 39 -47q46 0 46 47v401h149q0 3 3 9q0 6 2 11h-33v61h61v-62q0 -31 -23 -45zM231 724h-57q0 38 21 62t59 24q80 0 82 -69q1 -25 -23 -56q-12 -12 -25 -29q-7 -9 -10 -36h-54
q0 39 9 50l30 40q8 15 10 28q0 23 -21 23q-11 0 -17 -10q-2 -7 -4 -27z" />
    <glyph glyph-name="glyph359" unicode="&#x1eee;" horiz-adv-x="556" 
d="M515 712v-505q0 -224 -237 -225q-236 -1 -236 225v543h176v-566q0 -66 61 -67q30 -1 47 24q13 19 13 48v561h174l3 17h-36v68h67v-69q0 -38 -32 -54zM332 819q-25 -1 -63 15q-15 6 -37 10q-24 0 -31 -30h-55q17 97 86 99q14 0 31 -4q6 0 25.5 -9.5t25.5 -10.5t20 -3
q29 0 29 26h56q-7 -91 -87 -93z" />
    <glyph glyph-name="glyph360" unicode="&#x1eef;" 
d="M449 534v-534h-148v69q-14 -37 -45 -62t-68 -25q-142 -1 -142 118v460h159v-401q0 -47 39 -47q46 0 46 47v401h149q0 3 3 9q0 6 2 11h-33v61h61v-62q0 -31 -23 -45zM297 636q-28 0 -52 12q-13 4 -38 10q-22 0 -28 -27h-49q13 87 77 89q23 1 73 -19q7 -3 19 -5
q9 0 17.5 7.5t8.5 16.5h50q-7 -84 -78 -84z" />
    <glyph glyph-name="glyph361" unicode="&#x1ef0;" horiz-adv-x="556" 
d="M515 712v-505q0 -224 -237 -225q-236 -1 -236 225v543h176v-566q0 -66 61 -67q30 -1 47 24q13 19 13 48v561h174l3 17h-36v68h67v-69q0 -38 -32 -54zM342 -180h-118v119h118v-119z" />
    <glyph glyph-name="glyph362" unicode="&#x1ef1;" 
d="M449 534v-534h-148v69q-14 -37 -45 -62t-68 -25q-142 -1 -142 118v460h159v-401q0 -47 39 -47q46 0 46 47v401h149q0 3 3 9q0 6 2 11h-33v61h61v-62q0 -31 -23 -45zM302 -158h-106v107h106v-107z" />
    <glyph glyph-name="glyph363" unicode="&#x1ef2;" horiz-adv-x="556" 
d="M189 750l88 -245l92 245h176l-181 -435v-315h-176v315l-177 435h178zM119 905h146l70 -104h-96z" />
    <glyph glyph-name="glyph364" unicode="&#x1ef3;" horiz-adv-x="444" 
d="M166 560l54 -362l57 362h156l-101 -479q-19 -88 -30 -125q-25 -80 -61 -111q-41 -34 -122 -34q-13 0 -63 5v118l31 -4q46 -6 48 28q1 20 -6 48l-12 47l-111 507h160zM73 704h131l63 -94h-86z" />
    <glyph glyph-name="glyph365" unicode="&#x1ef4;" horiz-adv-x="556" 
d="M189 750l88 -245l92 245h176l-181 -435v-315h-176v315l-177 435h178zM336 -175h-118v119h118v-119z" />
    <glyph glyph-name="glyph366" unicode="&#x1ef5;" horiz-adv-x="444" 
d="M166 560l54 -362l57 362h156l-101 -479q-19 -88 -30 -125q-25 -80 -61 -111q-41 -34 -122 -34q-13 0 -63 5v118l31 -4q46 -6 48 28q1 20 -6 48l-12 47l-111 507h160zM423 -158h-106v107h106v-107z" />
    <glyph glyph-name="glyph367" unicode="&#x1ef6;" horiz-adv-x="556" 
d="M189 750l88 -245l92 245h176l-181 -435v-315h-176v315l-177 435h178zM263 908h-63q0 43 23.5 69t65.5 26q89 0 91 -76q1 -28 -26 -62l-26 -33q-7 -9 -10 -18l-2 -22h-61v26q0 16 13 34l24 30q18 24 18 41q0 25 -23 26q-14 1 -20 -12q-2 -8 -4 -29z" />
    <glyph glyph-name="glyph368" unicode="&#x1ef7;" horiz-adv-x="444" 
d="M166 560l54 -362l57 362h156l-101 -479q-19 -88 -30 -125q-25 -80 -61 -111q-41 -34 -122 -34q-13 0 -63 5v118l31 -4q46 -6 48 28q1 20 -6 48l-12 47l-111 507h160zM202 714h-57q0 38 21 62t59 24q80 0 82 -69q1 -25 -23 -56q-12 -12 -25 -29q-7 -9 -10 -36h-54
q0 39 9 50l30 40q8 15 10 28q0 23 -21 23q-11 0 -17 -10q-2 -7 -4 -27z" />
    <glyph glyph-name="glyph369" unicode="&#x1ef8;" horiz-adv-x="556" 
d="M189 750l88 -245l92 245h176l-181 -435v-315h-176v315l-177 435h178zM334 804q-25 -1 -63 15q-15 6 -37 10q-24 0 -31 -30h-55q17 97 86 99q14 0 31 -4q6 0 25.5 -9.5t25.5 -10.5t20 -3q29 0 29 26h56q-7 -91 -87 -93z" />
    <glyph glyph-name="glyph370" unicode="&#x1ef9;" horiz-adv-x="444" 
d="M166 560l54 -362l57 362h156l-101 -479q-19 -88 -30 -125q-25 -80 -61 -111q-41 -34 -122 -34q-13 0 -63 5v118l31 -4q46 -6 48 28q1 20 -6 48l-12 47l-111 507h160zM268 617q-28 0 -52 12q-13 4 -38 10q-22 0 -28 -27h-49q13 87 77 89q23 1 73 -19q7 -3 19 -5
q9 0 17.5 7.5t8.5 16.5h50q-7 -84 -78 -84z" />
  </font>
</defs>
</svg>
